<?xml version="1.0" encoding="UTF-8"?>
<svg width="15px" height="20px" viewBox="0 0 15 20" version="1.1" xmlns="http://www.w3.org/2000/svg" xmlns:xlink="http://www.w3.org/1999/xlink">
    <!-- Generator: Sketch 48.2 (47327) - http://www.bohemiancoding.com/sketch -->
    <title>clipboard</title>
    <desc>Created with Sketch.</desc>
    <defs>
        <path d="M31.0664062,13.3554688 C31.222657,13.3632813 31.3554682,13.3125005 31.4648438,13.203125 C31.5742193,13.0937495 31.625,12.9648445 31.6171875,12.8164062 C31.625,12.667968 31.5742193,12.539063 31.4648438,12.4296875 C31.3554682,12.320312 31.222657,12.2695312 31.0664062,12.2773438 C30.9101555,12.2695312 30.7851567,12.320312 30.6914062,12.4296875 C30.5820307,12.539063 30.5273438,12.667968 30.5273438,12.8164062 C30.5273438,12.9648445 30.5820307,13.0937495 30.6914062,13.203125 C30.7851567,13.3125005 30.9101555,13.3632813 31.0664062,13.3554688 Z M34.1132812,12.1132812 L37.0664062,12.1132812 C37.3632827,12.1132812 37.6171864,12.2187489 37.828125,12.4296875 C38.0390636,12.6406261 38.1445312,12.8945298 38.1445312,13.1914062 L38.1445312,27.4765625 C38.1445312,27.773439 38.0390636,28.0273427 37.828125,28.2382812 C37.6171864,28.4492198 37.3632827,28.5546875 37.0664062,28.5546875 L25.0898438,28.5546875 C24.7851547,28.5546875 24.5273448,28.4492198 24.3164062,28.2382812 C24.1054677,28.0273427 24,27.773439 24,27.4765625 L24,13.1914062 C24,12.8945298 24.1054677,12.6406261 24.3164062,12.4296875 C24.5273448,12.2187489 24.7851547,12.1132812 25.0898438,12.1132812 L28.0429688,12.1132812 L28.0429688,12.921875 C28.0429688,13.1093759 27.972657,13.2734368 27.8320312,13.4140625 C27.6914055,13.5546882 27.5273447,13.625 27.3398438,13.625 L25.9804688,13.625 C25.8554681,13.625 25.7460942,13.6718745 25.6523438,13.765625 C25.5585933,13.8593755 25.5117188,13.9687494 25.5117188,14.09375 L25.5117188,26.5742188 C25.5117188,26.7070319 25.5585933,26.820312 25.6523438,26.9140625 C25.7460942,27.007813 25.8554681,27.0507813 25.9804688,27.0429688 L36.1640625,27.0429688 C36.2968757,27.0507813 36.4101558,27.007813 36.5039062,26.9140625 C36.5976567,26.820312 36.640625,26.7070319 36.6328125,26.5742188 L36.6328125,14.09375 C36.640625,13.9687494 36.5976567,13.8593755 36.5039062,13.765625 C36.4101558,13.6718745 36.2968757,13.625 36.1640625,13.625 L34.8164062,13.625 C34.6289053,13.625 34.4648445,13.5546882 34.3242188,13.4140625 C34.183593,13.2734368 34.1132812,13.1093759 34.1132812,12.921875 L34.1132812,12.1132812 Z M35.0976562,16.1328125 L35.0976562,16.15625 C35.0976562,16.359376 35.0351569,16.4999996 34.9101562,16.578125 C34.7851556,16.6484379 34.6718755,16.6835938 34.5703125,16.6835938 L27.5859375,16.6835938 C27.3828115,16.6835938 27.2460941,16.6210944 27.1757812,16.4960938 C27.0976559,16.3710931 27.0585938,16.257813 27.0585938,16.15625 L27.0585938,16.1328125 C27.0585938,15.7421855 27.1757801,15.3906266 27.4101562,15.078125 C27.6445324,14.7656234 27.8906237,14.5781253 28.1484375,14.515625 C28.8906287,14.3203115 29.2617188,13.9062532 29.2617188,13.2734375 L29.2617188,12.7929688 C29.2617188,12.2851537 29.433592,11.8593767 29.7773438,11.515625 C30.1210955,11.1718733 30.5429662,11 31.0429688,11 L31.0898438,11 C31.7773472,11 32.292967,11.296872 32.6367188,11.890625 C32.7929695,12.1640639 32.8710938,12.4648421 32.8710938,12.7929688 L32.8710938,13.2734375 C32.8710938,13.8984406 33.2343714,14.3046866 33.9609375,14.4921875 C34.2343764,14.5703129 34.4921863,14.7656234 34.734375,15.078125 C34.9765637,15.3906266 35.0976562,15.7421855 35.0976562,16.1328125 Z" id="path-1"></path>
        <filter x="-3.5%" y="-8.5%" width="107.1%" height="117.1%" filterUnits="objectBoundingBox" id="filter-2">
            <feOffset dx="0" dy="1" in="SourceAlpha" result="shadowOffsetOuter1"></feOffset>
            <feColorMatrix values="0 0 0 0 1   0 0 0 0 1   0 0 0 0 1  0 0 0 0.139662591 0" type="matrix" in="shadowOffsetOuter1" result="shadowMatrixOuter1"></feColorMatrix>
            <feOffset dx="0" dy="-1" in="SourceAlpha" result="shadowOffsetOuter2"></feOffset>
            <feColorMatrix values="0 0 0 0 0   0 0 0 0 0   0 0 0 0 0  0 0 0 0.045459692 0" type="matrix" in="shadowOffsetOuter2" result="shadowMatrixOuter2"></feColorMatrix>
            <feMerge>
                <feMergeNode in="shadowMatrixOuter1"></feMergeNode>
                <feMergeNode in="shadowMatrixOuter2"></feMergeNode>
            </feMerge>
        </filter>
    </defs>
    <g id="Homepage" stroke="none" stroke-width="1" fill="none" fill-rule="evenodd" transform="translate(-621.000000, -510.000000)">
        <g id="hero">
            <g id="copy" transform="translate(249.000000, 186.000000)">
                <g id="cta" transform="translate(1.000000, 313.000000)">
                    <g id="Group" transform="translate(347.000000, 1.000000)">
                        <g id="clipboard">
                            <use fill="black" fill-opacity="1" filter="url(#filter-2)" xlink:href="#path-1"></use>
                            <use fill="#383845" fill-rule="evenodd" xlink:href="#path-1"></use>
                        </g>
                    </g>
                </g>
            </g>
        </g>
    </g>
</svg>