<?xml version="1.0" encoding="UTF-8"?>
<svg width="13px" height="13px" viewBox="0 0 13 13" version="1.1" xmlns="http://www.w3.org/2000/svg" xmlns:xlink="http://www.w3.org/1999/xlink">
    <!-- Generator: Sketch 48.2 (47327) - http://www.bohemiancoding.com/sketch -->
    <title>info-circle</title>
    <desc>Created with Sketch.</desc>
    <defs></defs>
    <g id="Homepage" stroke="none" stroke-width="1" fill="none" fill-rule="evenodd" transform="translate(-717.000000, -235.000000)">
        <g id="hero" fill="#8AC4FA">
            <g id="copy" transform="translate(249.000000, 186.000000)">
                <path d="M475.382812,58.09375 C475.471355,58.0052079 475.476563,57.9114588 475.398438,57.8125 C475.32552,57.7135412 475.239584,57.7005205 475.140625,57.7734375 C474.635414,58.0911474 474.382812,58.1328137 474.382812,57.8984375 C474.388021,57.8828124 474.393229,57.8541669 474.398438,57.8125 C474.408854,57.739583 474.520832,57.3046915 474.734375,56.5078125 C474.947918,55.7161419 475.054688,55.2031262 475.054688,54.96875 C475.044271,54.5416645 474.841148,54.3802078 474.445312,54.484375 C473.809893,54.6562509 473.125004,55.0182264 472.390625,55.5703125 C472.296875,55.6380212 472.278646,55.7291661 472.335938,55.84375 C472.393229,55.9583339 472.484374,55.9843753 472.609375,55.921875 C473.125003,55.6510403 473.380208,55.5807285 473.375,55.7109375 C473.375,55.7317709 473.26823,56.1666624 473.054688,57.015625 C472.841145,57.8645876 472.742187,58.390624 472.757812,58.59375 C472.783854,58.9218766 472.869791,59.1093748 473.015625,59.15625 C473.161459,59.2031252 473.354165,59.2005211 473.59375,59.1484375 C474.125003,59.0234369 474.721351,58.6718779 475.382812,58.09375 Z M474.546875,53.5234375 C474.770834,53.5234375 474.986978,53.4375009 475.195312,53.265625 C475.403647,53.0885408 475.507812,52.9010427 475.507812,52.703125 C475.507812,52.3645816 475.421876,52.1458338 475.25,52.046875 C475.078124,51.9427078 474.885418,51.890625 474.671875,51.890625 C474.453124,51.890625 474.255209,51.9895823 474.078125,52.1875 C473.901041,52.3854177 473.8125,52.5937489 473.8125,52.8125 C473.8125,53.0416678 473.880208,53.2187494 474.015625,53.34375 C474.151042,53.4687506 474.328124,53.5286459 474.546875,53.5234375 Z M471.703125,50.0546875 C472.442712,49.7369776 473.218746,49.578125 474.03125,49.578125 C474.843754,49.578125 475.619788,49.7369776 476.359375,50.0546875 C477.098962,50.3723974 477.739581,50.7994765 478.28125,51.3359375 C478.817711,51.8723985 479.24479,52.510413 479.5625,53.25 C479.88021,53.989587 480.039062,54.7682251 480.039062,55.5859375 C480.039062,56.4036499 479.88021,57.182288 479.5625,57.921875 C479.24479,58.661462 478.817711,59.2994765 478.28125,59.8359375 C477.739581,60.3723985 477.098962,60.7994776 476.359375,61.1171875 C475.619788,61.4348974 474.843754,61.59375 474.03125,61.59375 C473.218746,61.59375 472.442712,61.4348974 471.703125,61.1171875 C470.963538,60.7994776 470.322919,60.3723985 469.78125,59.8359375 C469.244789,59.2994765 468.81771,58.661462 468.5,57.921875 C468.18229,57.182288 468.023438,56.4036499 468.023438,55.5859375 C468.023438,54.7682251 468.18229,53.989587 468.5,53.25 C468.81771,52.510413 469.244789,51.8723985 469.78125,51.3359375 C470.322919,50.7994765 470.963538,50.3723974 471.703125,50.0546875 Z" id="info-circle"></path>
            </g>
        </g>
    </g>
</svg>