<?xml version="1.0" encoding="UTF-8"?>
<svg width="164px" height="57px" viewBox="0 0 164 57" version="1.1" xmlns="http://www.w3.org/2000/svg" xmlns:xlink="http://www.w3.org/1999/xlink">
    <!-- Generator: Sketch 48.2 (47327) - http://www.bohemiancoding.com/sketch -->
    <title>logo-light</title>
    <desc>Created with Sketch.</desc>
    <defs>
        <linearGradient x1="0%" y1="0%" x2="100%" y2="100%" id="linearGradient-1">
            <stop stop-color="#77DDFF" offset="0%"></stop>
            <stop stop-color="#C973E9" offset="100%"></stop>
        </linearGradient>
    </defs>
    <g id="Header/Light" stroke="none" stroke-width="1" fill="none" fill-rule="evenodd" transform="translate(0.000000, -6.000000)">
        <g id="logo-light">
            <g>
                <g id="Logo-orange">
                    <g id="placeholder" transform="translate(0.000000, 6.245690)">
                        <g id="Group" transform="translate(0.000000, 0.487110)" fill="#383845" fill-rule="nonzero" opacity="0.100000001">
                            <path d="M34.9997242,0 C27.3889533,0.0416434028 20.4215506,4.95818693 17.9612934,12.3837455 C13.3832168,13.149907 9.01893646,15.3964143 5.64960966,19.0864825 C-2.37162928,27.8712586 -1.7798329,41.5910632 6.9678646,49.6462854 C15.3180566,57.3355855 28.1451764,57.141481 36.2704757,49.4674501 C37.8530252,50.517558 39.6068358,51.3336144 41.4880978,51.8606348 C51.324189,54.6161942 61.5865901,48.7686893 64.3221231,38.8607212 C66.9032276,29.5121629 61.8918377,19.7973508 53.055538,16.414904 C52.353169,8.7907681 46.8872405,2.3813857 39.3978852,0.536660074 C38.19137,0.239526684 36.9802397,0.0620023997 35.783554,0.015886187 C35.5217706,0.00586092336 35.2601561,-0.0018508179 34.9997242,0.000462704476 L34.9997242,0 Z M28.7899543,18.7327659 L28.7899543,18.4505548 C28.7899543,17.201727 29.0376722,16.2194568 29.5576954,15.5122603 C30.0007087,14.909792 30.6061075,14.5455116 31.3427548,14.4266514 C28.8461778,13.2863475 25.738471,12.3563907 23.2819026,12.1571745 C25.4841469,7.71629119 29.9956602,4.89934634 34.9245604,4.85407842 L34.924545,4.85407842 C36.0143903,4.84405315 37.1237714,4.97021724 38.2340509,5.24367559 C43.9465044,6.6507599 48.0226387,11.6431098 48.2655083,17.5280938 C48.2731874,17.6780101 48.2940748,17.8273094 48.3288615,17.9733698 C48.2197634,19.1158642 49.0270223,20.2775609 50.1300988,20.5653631 C57.4474788,22.6152982 61.6978077,30.1938037 59.6627393,37.564686 C57.6276785,44.9355683 50.1079674,49.2035544 42.7905874,47.1536193 C39.4899749,46.2289511 36.718141,44.1248068 34.9295272,41.3210777 C34.7876201,41.9492011 34.5133352,42.4786712 34.1022949,42.9004814 C33.4780324,43.5411006 32.7335268,43.8731062 31.898499,43.8731062 C31.4495788,43.8731062 31.0383657,43.7989249 30.6699123,43.6510077 C31.2360196,44.5751287 31.8803042,45.4454928 32.5928604,46.2551243 C26.2609348,51.9136916 16.6260291,51.938909 10.2378458,46.0563156 C3.41996604,39.7781871 2.97272264,29.2170345 9.22440841,22.3702962 C14.3656958,16.7395761 22.2043094,15.666317 28.7899543,18.7327659 Z" id="Shape"></path>
                        </g>
                        <path d="M41.69744,41.4319562 L37.2078111,34.0396414 L34.4506946,36.653086 L34.4506946,40.7039252 C34.4506946,41.6870831 34.1929938,42.4431077 33.6775843,42.9720217 C33.1621748,43.5009358 32.5691523,43.7653888 31.898499,43.7653888 C31.1160701,43.7653888 30.5013138,43.504047 30.0542116,42.9813555 C29.6071094,42.4586639 29.3835616,41.6870832 29.3835616,40.6665902 L29.3835616,18.9376651 C29.3835616,17.8051668 29.6008997,16.9433609 30.0355824,16.3522217 C30.4702651,15.7610824 31.0912311,15.4655172 31.898499,15.4655172 C32.6809278,15.4655172 33.3018938,15.7330815 33.7614155,16.2682181 C34.2209372,16.8033547 34.4506946,17.5936026 34.4506946,18.6389857 L34.4506946,30.9968452 L40.1698484,24.9859226 C40.8777603,24.2392204 41.4180007,23.7289816 41.7905858,23.4551908 C42.163171,23.1814 42.6164762,23.0445066 43.1505149,23.0445066 C43.7839097,23.0445066 44.3117308,23.2467354 44.733994,23.6511991 C45.1562572,24.0556628 45.3673856,24.5627904 45.3673856,25.1725972 C45.3673856,25.9192994 44.6781134,26.9148874 43.2995482,28.159391 L40.5983192,30.6421634 L45.8144856,38.8558465 C46.1994903,39.4656533 46.4758201,39.9292239 46.6434834,40.2465724 C46.8111468,40.5639208 46.8949772,40.8657084 46.8949772,41.1519442 C46.8949772,41.9608716 46.6745342,42.5986702 46.2336418,43.065359 C45.7927493,43.5320479 45.2121462,43.7653888 44.4918148,43.7653888 C43.8708395,43.7653888 43.3926957,43.5973834 43.0573691,43.2613674 C42.7220424,42.9253514 42.2687373,42.3155538 41.69744,41.4319562 Z" id="k" fill="url(#linearGradient-1)"></path>
                    </g>
                </g>
                <path d="M84.592,35.48 L88.736,40.696 C88.8,40.7706667 88.816,40.84 88.784,40.904 C88.752,40.968 88.688,41 88.592,41 L87.328,41 C87.1573333,41 87.0026667,40.8986667 86.864,40.696 L83.28,36.168 L82.88,36.168 L82.88,40.696 C82.88,40.8986667 82.7786667,41 82.576,41 L81.6,41 C81.408,41 81.312,40.8986667 81.312,40.696 L81.312,30.424 C81.312,30.2213333 81.408,30.12 81.6,30.12 L82.576,30.12 C82.7786667,30.12 82.88,30.2213333 82.88,30.424 L82.88,35 L83.264,35 L86.608,30.424 C86.768,30.2213333 86.9333333,30.12 87.104,30.12 L88.16,30.12 C88.2666667,30.12 88.3306667,30.152 88.352,30.216 C88.3733333,30.28 88.3573333,30.3493333 88.304,30.424 L84.592,35.48 Z M106.272,41 L100.624,41 C100.432,41 100.336,40.8933333 100.336,40.68 L100.336,30.44 C100.336,30.2266667 100.432,30.12 100.624,30.12 L106.096,30.12 C106.298667,30.12 106.4,30.2213333 106.4,30.424 L106.4,31.144 C106.4,31.3466667 106.298667,31.448 106.096,31.448 L101.888,31.448 L101.888,34.68 L105.808,34.68 C106.021333,34.68 106.128,34.7813333 106.128,34.984 L106.128,35.672 C106.128,35.8746667 106.021333,35.976 105.808,35.976 L101.888,35.976 L101.888,39.672 L106.272,39.672 C106.474667,39.672 106.576,39.768 106.576,39.96 L106.576,40.696 C106.576,40.8986667 106.474667,41 106.272,41 Z M120.208,30.44 L120.208,39.672 L124.304,39.672 C124.506667,39.672 124.608,39.768 124.608,39.96 L124.608,40.696 C124.608,40.8986667 124.506667,41 124.304,41 L118.896,41 C118.725333,41 118.64,40.8933333 118.64,40.68 L118.64,30.44 C118.64,30.2266667 118.741333,30.12 118.944,30.12 L119.92,30.12 C120.112,30.12 120.208,30.2266667 120.208,30.44 Z M140.032,41 L136.656,41 C136.485333,41 136.4,40.8933333 136.4,40.68 L136.4,30.44 C136.4,30.2266667 136.496,30.12 136.688,30.12 L140.032,30.12 C141.312,30.12 142.24,30.3493333 142.816,30.808 C143.392,31.2666667 143.68,31.8586667 143.68,32.584 L143.68,38.536 C143.68,39.2613333 143.392,39.8533333 142.816,40.312 C142.24,40.7706667 141.312,41 140.032,41 Z M140.032,31.448 L137.952,31.448 L137.952,39.672 L140.032,39.672 C141.418667,39.672 142.112,39.208 142.112,38.28 L142.112,32.84 C142.112,31.912 141.418667,31.448 140.032,31.448 Z M158.64,30.12 L159.632,30.12 C159.824,30.12 159.952,30.2213333 160.016,30.424 L163.12,40.696 C163.184,40.8986667 163.104,41 162.88,41 L161.872,41 C161.690667,41 161.573333,40.8986667 161.52,40.696 L160.768,38.216 L157.392,38.216 L156.656,40.696 C156.602667,40.8986667 156.485333,41 156.304,41 L155.376,41 C155.162667,41 155.088,40.8986667 155.152,40.696 L158.256,30.424 C158.32,30.2213333 158.448,30.12 158.64,30.12 Z M160.432,36.968 L159.536,34.056 C159.450667,33.8 159.36,33.3893333 159.264,32.824 C159.168,32.2586667 159.114667,31.8906667 159.104,31.72 C159.104,31.7306667 159.08,31.888 159.032,32.192 C158.984,32.496 158.925333,32.8266667 158.856,33.184 C158.786667,33.5413333 158.72,33.8213333 158.656,34.024 L157.744,36.968 L160.432,36.968 Z" id="KELDA" fill="#383845"></path>
            </g>
        </g>
    </g>
</svg>