<?xml version="1.0" encoding="UTF-8"?>
<svg width="120px" height="40px" viewBox="0 0 120 40" version="1.1" xmlns="http://www.w3.org/2000/svg" xmlns:xlink="http://www.w3.org/1999/xlink">
    <!-- Generator: Sketch 49 (51002) - http://www.bohemiancoding.com/sketch -->
    <title>logo-dark</title>
    <desc>Created with Sketch.</desc>
    <defs>
        <linearGradient x1="13.5069975%" y1="49.9582716%" x2="113.610433%" y2="49.9582716%" id="linearGradient-1">
            <stop stop-color="#FF99A9" offset="0%"></stop>
            <stop stop-color="#E75A71" offset="100%"></stop>
        </linearGradient>
        <linearGradient x1="-10.6745429%" y1="49.940399%" x2="99.9884669%" y2="49.940399%" id="linearGradient-2">
            <stop stop-color="#FF99A9" offset="0%"></stop>
            <stop stop-color="#E75A71" offset="100%"></stop>
        </linearGradient>
        <linearGradient x1="21.5499074%" y1="89.0752439%" x2="76.4964694%" y2="16.2028049%" id="linearGradient-3">
            <stop stop-color="#6887F7" offset="0%"></stop>
            <stop stop-color="#88C1F7" offset="100%"></stop>
        </linearGradient>
        <linearGradient x1="24.5846075%" y1="83.0054391%" x2="90.1660564%" y2="-13.643856%" id="linearGradient-4">
            <stop stop-color="#639CEB" offset="0%"></stop>
            <stop stop-color="#88C1F7" offset="100%"></stop>
        </linearGradient>
        <linearGradient x1="51.178022%" y1="-30.8933747%" x2="51.178022%" y2="125.024845%" id="linearGradient-5">
            <stop stop-color="#88C1F7" offset="0%"></stop>
            <stop stop-color="#6887F7" offset="100%"></stop>
        </linearGradient>
        <linearGradient x1="50.3626374%" y1="-102.633013%" x2="50.3626374%" y2="138.740385%" id="linearGradient-6">
            <stop stop-color="#88C1F7" offset="0%"></stop>
            <stop stop-color="#6887F7" offset="100%"></stop>
        </linearGradient>
        <linearGradient x1="50.2338983%" y1="-91.1030905%" x2="50.2338983%" y2="75.1408389%" id="linearGradient-7">
            <stop stop-color="#88C1F7" offset="0%"></stop>
            <stop stop-color="#6887F7" offset="100%"></stop>
        </linearGradient>
        <linearGradient x1="49.8206897%" y1="-250.63617%" x2="49.8206897%" y2="16.4152482%" id="linearGradient-8">
            <stop stop-color="#88C1F7" offset="0%"></stop>
            <stop stop-color="#6887F7" offset="100%"></stop>
        </linearGradient>
        <linearGradient x1="50.2338983%" y1="-39.5618102%" x2="50.2338983%" y2="126.682119%" id="linearGradient-9">
            <stop stop-color="#88C1F7" offset="0%"></stop>
            <stop stop-color="#4D94F7" offset="100%"></stop>
        </linearGradient>
        <linearGradient x1="49.8206897%" y1="-124.544326%" x2="49.8206897%" y2="142.507092%" id="linearGradient-10">
            <stop stop-color="#88C1F7" offset="0%"></stop>
            <stop stop-color="#4D94F7" offset="100%"></stop>
        </linearGradient>
        <linearGradient x1="17.2030847%" y1="49.8164894%" x2="117.42752%" y2="49.8164894%" id="linearGradient-11">
            <stop stop-color="#FF99A9" offset="0%"></stop>
            <stop stop-color="#E75A71" offset="100%"></stop>
        </linearGradient>
        <linearGradient x1="102.908189%" y1="116.256989%" x2="-30.5062284%" y2="-31.1523297%" id="linearGradient-12">
            <stop stop-color="#178287" offset="0%"></stop>
            <stop stop-color="#5DD9D3" offset="100%"></stop>
        </linearGradient>
        <linearGradient x1="48.4840694%" y1="27.9448923%" x2="81.7667192%" y2="129.646609%" id="linearGradient-13">
            <stop stop-color="#FF99A9" offset="0%"></stop>
            <stop stop-color="#E75A71" offset="100%"></stop>
        </linearGradient>
        <linearGradient x1="40.5862776%" y1="6.3840708%" x2="73.8794953%" y2="153.152212%" id="linearGradient-14">
            <stop stop-color="#FF99A9" offset="0%"></stop>
            <stop stop-color="#E75A71" offset="100%"></stop>
        </linearGradient>
        <linearGradient x1="26.8302966%" y1="207.803871%" x2="54.0597458%" y2="41.2774194%" id="linearGradient-15">
            <stop stop-color="#178287" offset="0%"></stop>
            <stop stop-color="#5DD9D3" offset="100%"></stop>
        </linearGradient>
        <linearGradient x1="20.3461864%" y1="205.66871%" x2="47.5756356%" y2="39.1422581%" id="linearGradient-16">
            <stop stop-color="#178287" offset="0%"></stop>
            <stop stop-color="#62E6DF" offset="100%"></stop>
        </linearGradient>
        <linearGradient x1="5.47138791%" y1="184.921693%" x2="60.4655194%" y2="26.8378307%" id="linearGradient-17">
            <stop stop-color="#6887F7" offset="0%"></stop>
            <stop stop-color="#88C1F7" offset="100%"></stop>
        </linearGradient>
        <linearGradient x1="8.71575481%" y1="63%" x2="87.0619554%" y2="46.8768817%" id="linearGradient-18">
            <stop stop-color="#FFFFFF" stop-opacity="0" offset="0%"></stop>
            <stop stop-color="#FFFFFF" offset="50%"></stop>
            <stop stop-color="#FFFFFF" stop-opacity="0" offset="100%"></stop>
        </linearGradient>
        <linearGradient x1="3.88%" y1="2.2320393%" x2="4.87%" y2="2.2320393%" id="linearGradient-19">
            <stop stop-color="#6887F7" offset="0%"></stop>
            <stop stop-color="#88C1F7" offset="100%"></stop>
        </linearGradient>
        <linearGradient x1="-228.321262%" y1="49.7730909%" x2="33.0784053%" y2="49.7730909%" id="linearGradient-20">
            <stop stop-color="#FF99A9" offset="0%"></stop>
            <stop stop-color="#E75A71" offset="100%"></stop>
        </linearGradient>
        <linearGradient x1="91.1322953%" y1="103.245878%" x2="-42.2820069%" y2="-44.1634409%" id="linearGradient-21">
            <stop stop-color="#178287" offset="0%"></stop>
            <stop stop-color="#5DD9D3" offset="100%"></stop>
        </linearGradient>
        <linearGradient x1="-0.21232687%" y1="48.5214286%" x2="99.9480609%" y2="48.5214286%" id="linearGradient-22">
            <stop stop-color="#FFFFFF" stop-opacity="0" offset="0%"></stop>
            <stop stop-color="#FFFFFF" offset="50%"></stop>
            <stop stop-color="#FFFFFF" stop-opacity="0" offset="100%"></stop>
        </linearGradient>
        <linearGradient x1="-0.139038462%" y1="50.15%" x2="100.080192%" y2="50.15%" id="linearGradient-23">
            <stop stop-color="#FFFFFF" stop-opacity="0" offset="0%"></stop>
            <stop stop-color="#FFFFFF" offset="50%"></stop>
            <stop stop-color="#FFFFFF" stop-opacity="0" offset="100%"></stop>
        </linearGradient>
        <linearGradient x1="-81.1535739%" y1="123.306448%" x2="73.0088928%" y2="50.6108273%" id="linearGradient-24">
            <stop stop-color="#6887F7" offset="0%"></stop>
            <stop stop-color="#88C1F7" offset="100%"></stop>
        </linearGradient>
        <linearGradient x1="-50.0510472%" y1="107.871883%" x2="123.603985%" y2="28.6201592%" id="linearGradient-25">
            <stop stop-color="#6887F7" offset="0%"></stop>
            <stop stop-color="#88C1F7" offset="100%"></stop>
        </linearGradient>
    </defs>
    <g id="Symbols" stroke="none" stroke-width="1" fill="none" fill-rule="evenodd">
        <g id="Header/Dark" transform="translate(0.000000, -15.000000)">
            <g id="header" transform="translate(0.000000, 15.000000)">
                <g id="logo-dark">
                    <g id="Logo">
                        <g id="Kelda-Horizontal-logo-exported-by-me">
                            <g id="Group" transform="translate(59.886148, 14.090909)" fill="#FFFFFF" fill-rule="nonzero">
                                <polygon id="Shape" points="3.57495256 18.3181818 0 18.3181818 0 0.681818182 3.57495256 0.681818182 3.57495256 8.43181818 5.9658444 8.18181818 8.88045541 0.681818182 12.9563567 0.681818182 9.10815939 9.52272727 13.0474383 18.3181818 8.9259962 18.3181818 5.9658444 11.2954545 3.57495256 11.5454545"></polygon>
                                <path d="M18.1252372,15.0454545 C18.5351044,15.4090909 19.1271347,15.5681818 19.8785579,15.5681818 C21.4952562,15.5681818 22.9297913,15.5227273 24.1821632,15.4090909 L24.9108159,15.3409091 L24.9563567,17.9090909 C22.9753321,18.3863636 21.1537002,18.6363636 19.5597723,18.6363636 C17.601518,18.6363636 16.1897533,18.1136364 15.3017078,17.0909091 C14.4136622,16.0454545 13.9810247,14.3636364 13.9810247,12.0454545 C13.9810247,7.38636364 15.8937381,5.06818182 19.7191651,5.06818182 C23.4990512,5.06818182 25.3889943,7.02272727 25.3889943,10.9318182 L25.1385199,13.3409091 L17.5104364,13.3409091 C17.5104364,14.1136364 17.71537,14.6818182 18.1252372,15.0454545 Z M21.9506641,10.6590909 C21.9506641,9.61363636 21.7912713,8.90909091 21.4497154,8.5 C21.1309298,8.09090909 20.5388994,7.88636364 19.7191651,7.88636364 C18.8994307,7.88636364 18.3074004,8.09090909 17.9886148,8.52272727 C17.6470588,8.95454545 17.4648956,9.65909091 17.4648956,10.6590909 L21.9506641,10.6590909 Z" id="Shape"></path>
                                <polygon id="Shape" points="28.0303605 18.3181818 28.0303605 0.181818182 31.5142315 0.181818182 31.5142315 18.3181818"></polygon>
                                <path d="M45.9278937,0.181818182 L45.9278937,18.3181818 L42.4667932,18.3181818 L42.4667932,17.7727273 C41.259962,18.3409091 40.2125237,18.6363636 39.3244782,18.6363636 C37.4345351,18.6363636 36.113852,18.0909091 35.3851992,17 C34.6337761,15.9090909 34.2694497,14.1818182 34.2694497,11.8181818 C34.2694497,9.45454545 34.7248577,7.75 35.6129032,6.65909091 C36.5009488,5.56818182 37.8444023,5.04545455 39.6432638,5.04545455 C40.1897533,5.04545455 40.9639469,5.13636364 41.9658444,5.29545455 L42.4667932,5.40909091 L42.4667932,0.181818182 L45.9278937,0.181818182 Z M42.0796964,15.2045455 L42.4440228,15.1363636 L42.4440228,8.31818182 C41.487666,8.13636364 40.6451613,8.06818182 39.8937381,8.06818182 C38.4819734,8.06818182 37.7988615,9.31818182 37.7988615,11.7954545 C37.7988615,13.1363636 37.9582543,14.1136364 38.2770398,14.6818182 C38.5958254,15.25 39.0967742,15.5454545 39.8254269,15.5454545 C40.5313093,15.5227273 41.2827324,15.4090909 42.0796964,15.2045455 Z" id="Shape"></path>
                                <path d="M59.0891841,9.40909091 L59.0891841,14.7954545 C59.1347249,15.2045455 59.2030361,15.5 59.2941176,15.6590909 C59.4079696,15.8181818 59.6129032,15.9318182 59.9544592,16 L59.8406072,18.6136364 C58.9525617,18.6136364 58.2466793,18.5454545 57.7229602,18.4318182 C57.199241,18.3181818 56.6527514,18.0681818 56.1290323,17.7045455 C54.8766603,18.3181818 53.601518,18.6136364 52.3036053,18.6136364 C49.6166983,18.6136364 48.2732448,17.2045455 48.2732448,14.3636364 C48.2732448,12.9772727 48.6375712,12 49.3889943,11.4318182 C50.1404175,10.8636364 51.2789374,10.5227273 52.8273245,10.4090909 L55.6053131,10.2045455 L55.6053131,9.40909091 C55.6053131,8.86363636 55.4914611,8.5 55.2409867,8.31818182 C54.9905123,8.11363636 54.6034156,8.02272727 54.0796964,8.02272727 L49.2068311,8.22727273 L49.0929791,5.81818182 C50.9373814,5.31818182 52.7134725,5.06818182 54.3757116,5.06818182 C56.0379507,5.06818182 57.2447818,5.40909091 57.9962049,6.11363636 C58.7248577,6.77272727 59.0891841,7.88636364 59.0891841,9.40909091 Z M53.259962,12.8181818 C52.2808349,12.9090909 51.8026565,13.4318182 51.8026565,14.3636364 C51.8026565,15.3181818 52.2352941,15.7954545 53.0777989,15.7954545 C53.7381404,15.7954545 54.4440228,15.6818182 55.2409867,15.4772727 L55.6280835,15.3636364 L55.6280835,12.5909091 L53.259962,12.8181818 Z" id="Shape"></path>
                            </g>
                            <g id="Group">
                                <path d="M25.3662239,20.0681818 L25.4117647,20.0681818 L25.4573055,20.0681818 L41.0550285,20.0681818 L41.0550285,13.8863636 C41.0550285,12.2727273 39.7571157,10.9772727 38.1404175,10.9772727 L37.1612903,10.9772727 L37.0702087,10.9772727 L35.2258065,10.9772727 L35.1347249,10.9772727 L31.1954459,10.9772727 L31.1043643,10.9772727 L29.259962,10.9772727 L29.1461101,10.9772727 L26.0721063,10.9772727 C24.455408,10.9772727 23.1574953,12.2727273 23.1574953,13.8863636 L23.1574953,20.1818182 L25.3662239,20.0681818 Z M33.2447818,12.75 L33.2447818,15.3181818 L31.4003795,15.3181818 L31.4003795,12.75 L33.2447818,12.75 Z M36.5009488,15.3181818 L34.6565465,15.3181818 L34.6565465,12.75 L36.5009488,12.75 L36.5009488,15.3181818 Z M39.7343454,12.75 L39.7343454,15.3181818 L37.8899431,15.3181818 L37.8899431,12.75 L39.7343454,12.75 Z" id="Shape" fill="url(#linearGradient-1)" fill-rule="nonzero"></path>
                                <path d="M38.1631879,10.9772727 L37.1840607,10.9772727 L37.0929791,10.9772727 L35.2485769,10.9772727 L35.1574953,10.9772727 L35.0664137,10.9772727 C35.1119545,11.2727273 35.1347249,11.5454545 35.1347249,11.8409091 C35.1347249,12.1590909 35.1119545,12.4545455 35.0436433,12.75 L36.5009488,12.75 L36.5009488,15.3181818 L34.6565465,15.3181818 L34.6565465,14 C33.3814042,16.7954545 29.6925996,19.0681818 24.8880455,20.0909091 L25.3889943,20.0681818 L25.4345351,20.0681818 L25.4800759,20.0681818 L41.0777989,20.0681818 L41.0777989,13.8863636 C41.0777989,12.2727273 39.7798861,10.9772727 38.1631879,10.9772727 Z M39.7343454,15.3181818 L37.8899431,15.3181818 L37.8899431,12.75 L39.7343454,12.75 L39.7343454,15.3181818 Z" id="Shape" fill="url(#linearGradient-2)" fill-rule="nonzero"></path>
                                <path d="M48.4781784,39.9545455 L48.5237192,39.9545455 L48.5464896,39.9318182 C48.6375712,39.8409091 56.288425,33.1590909 55.2637571,25.6818182 C55.0132827,23.8409091 54.0113852,22.3863636 52.3263757,21.3409091 L52.2808349,21.3181818 L52.2352941,21.3181818 C52.0303605,21.3636364 49.3206831,22.0909091 45.199241,23.0227273 C41.5332068,23.8409091 36.7741935,24.7954545 31.6508539,25.5909091 C29.5104364,25.9090909 27.4383302,26.2045455 25.4573055,26.4090909 C21.5180266,26.8636364 17.9203036,27.0909091 14.686907,27.1136364 C14.6185958,27.1136364 14.5275142,27.1136364 14.459203,27.1136364 C8.37950664,27.1363636 3.50664137,26.3409091 0.250474383,24.8409091 C0.159392789,25.5681818 -0.432637571,32.25 2.84629981,35.25 C2.84629981,35.25 18.3074004,32.3181818 16.7590133,35.0909091 C15.2106262,37.8409091 34.9981025,30.9545455 36.5920304,34.9090909 C38.2087287,38.8636364 41.6470588,40.6590909 48.6148008,36.2954545 C55.5825427,31.9318182 48.4781784,39.9545455 48.4781784,39.9545455 Z" id="Shape" fill="url(#linearGradient-3)" fill-rule="nonzero"></path>
                                <path d="M39.028463,33.9772727 C37.4117647,30.0227273 17.6470588,36.9090909 19.1954459,34.1590909 C20.743833,31.4090909 3.91650854,34.4772727 3.91650854,34.4772727 C1.5483871,32.2954545 0.250474383,27.2045455 0.273244782,24.8409091 C-0.569259962,24.5909091 0.979127135,25.1590909 0.273244782,24.8409091 C0.182163188,25.5681818 -0.409867173,32.25 2.86907021,35.25 C2.86907021,35.25 18.3301708,32.3181818 16.7817837,35.0909091 C15.2333966,37.8409091 35.0208729,30.9545455 36.6148008,34.9090909 C38.0265655,38.3863636 40.8728653,40.1818182 46.2694497,37.6136364 C42.398482,38.6363636 40.2125237,36.9090909 39.028463,33.9772727 Z" id="Shape" fill="url(#linearGradient-4)" fill-rule="nonzero"></path>
                                <rect id="Rectangle-path" x="34.6337761" y="12.75" width="1.84440228" height="2.56818182"></rect>
                                <rect id="Rectangle-path" x="31.3776091" y="12.75" width="1.84440228" height="2.56818182"></rect>
                                <rect id="Rectangle-path" x="37.8899431" y="12.75" width="1.84440228" height="2.56818182"></rect>
                                <path d="M37.0702087,10.9772727 L37.1612903,10.9772727 L37.1612903,1.02272727 C37.1612903,0.454545455 36.7058824,0 36.1366224,0 L36.113852,0 C35.544592,0 35.0891841,0.454545455 35.0891841,1.02272727 L35.0891841,10.9772727 L35.1802657,10.9772727 L37.0702087,10.9772727 Z" id="Shape" fill="url(#linearGradient-5)" fill-rule="nonzero"></path>
                                <path d="M31.1043643,10.9772727 L31.1954459,10.9772727 L31.1954459,4.90909091 C31.1954459,4.34090909 30.740038,3.88636364 30.170778,3.88636364 L30.1480076,3.88636364 C29.5787476,3.88636364 29.1233397,4.34090909 29.1233397,4.90909091 L29.1233397,10.9772727 L29.2144213,10.9772727 L31.1043643,10.9772727 Z" id="Shape" fill="url(#linearGradient-6)" fill-rule="nonzero"></path>
                                <path d="M37.1840607,10.9772727 L37.1840607,1.02272727 C37.1840607,0.909090909 37.1612903,0.818181818 37.1385199,0.727272727 C37.0474383,0.681818182 36.9791271,0.681818182 36.8880455,0.681818182 L36.8652751,0.681818182 C36.2960152,0.681818182 35.8406072,1.13636364 35.8406072,1.70454545 L35.8406072,10.9772727 L37.0702087,10.9772727 L37.1840607,10.9772727 Z" id="Shape" fill="url(#linearGradient-7)" fill-rule="nonzero"></path>
                                <path d="M31.1954459,10.9772727 L31.1954459,4.90909091 C31.1954459,4.79545455 31.1726755,4.70454545 31.1499051,4.61363636 C31.0815939,4.59090909 30.9905123,4.59090909 30.9222011,4.59090909 L30.8994307,4.59090909 C30.3301708,4.59090909 29.8747628,5.04545455 29.8747628,5.61363636 L29.8747628,11 L31.1043643,11 L31.1954459,11 L31.1954459,10.9772727 Z" id="Shape" fill="url(#linearGradient-8)" fill-rule="nonzero"></path>
                                <g transform="translate(29.829222, 0.681818)" fill-rule="nonzero" id="Shape">
                                    <path d="M7.35483871,10.2954545 L7.35483871,0.340909091 C7.35483871,0.227272727 7.33206831,0.136363636 7.30929791,0.0454545455 C7.21821632,0 7.14990512,0 7.05882353,0 L7.03605313,0 C6.46679317,0 6.0113852,0.454545455 6.0113852,1.02272727 L6.0113852,10.2954545 L7.24098672,10.2954545 L7.35483871,10.2954545 Z" fill="url(#linearGradient-9)"></path>
                                    <path d="M1.36622391,10.2954545 L1.36622391,4.22727273 C1.36622391,4.11363636 1.34345351,4.02272727 1.32068311,3.93181818 C1.25237192,3.90909091 1.16129032,3.90909091 1.09297913,3.90909091 L1.07020873,3.90909091 C0.500948767,3.90909091 0.045540797,4.36363636 0.045540797,4.93181818 L0.045540797,10.3181818 L1.27514231,10.3181818 L1.36622391,10.3181818 L1.36622391,10.2954545 Z" fill="url(#linearGradient-10)"></path>
                                </g>
                                <path d="M38.1631879,10.9772727 L37.1840607,10.9772727 L37.0929791,10.9772727 L35.2485769,10.9772727 L35.1574953,10.9772727 L31.1954459,10.9772727 L31.1043643,10.9772727 L29.259962,10.9772727 L29.1461101,10.9772727 L26.0721063,10.9772727 C24.455408,10.9772727 23.1574953,12.2727273 23.1574953,13.8863636 L23.1574953,15.25 C23.1574953,13.6363636 24.455408,12.3409091 26.0721063,12.3409091 L29.1461101,12.3409091 L29.2371917,12.3409091 L31.0815939,12.3409091 L31.1726755,12.3409091 L35.1119545,12.3409091 L35.2030361,12.3409091 L37.0474383,12.3409091 L37.1385199,12.3409091 L38.1176471,12.3409091 C38.6641366,12.3409091 39.1878558,12.5 39.6204934,12.7727273 L39.6888046,12.7727273 L39.6888046,12.8181818 C40.4857685,13.3409091 41.0322581,14.2272727 41.0322581,15.25 L41.0322581,13.8863636 C41.0777989,12.2727273 39.7798861,10.9772727 38.1631879,10.9772727 Z" id="Shape" fill="url(#linearGradient-11)" fill-rule="nonzero"></path>
                                <path d="M25.4573055,26.3863636 C27.4383302,26.1590909 29.5104364,25.8863636 31.6508539,25.5681818 C36.7741935,24.7727273 41.5332068,23.8181818 45.199241,23 L44.857685,23 L44.857685,22.9545455 C44.857685,21.3409091 43.5597723,20.0454545 41.943074,20.0454545 L41.0777989,20.0454545 L25.4800759,20.0454545 L25.4800759,26.3863636 L25.4573055,26.3863636 Z" id="Shape" fill="url(#linearGradient-12)" fill-rule="nonzero"></path>
                                <path d="M14.4819734,27.0909091 C14.5502846,27.0909091 14.6413662,27.0909091 14.7096774,27.0909091 L14.7096774,24.3409091 C14.5958254,24.3409091 14.459203,24.3409091 14.345351,24.3409091 C12.0910816,24.3409091 8.17457306,23.4318182 7.99240987,23.3863636 L7.96963947,23.3863636 L0.273244782,24.8181818 C3.50664137,26.3181818 8.37950664,27.1136364 14.4819734,27.0909091 Z" id="Shape" fill="url(#linearGradient-13)" fill-rule="nonzero"></path>
                                <path d="M8.76660342,24.9545455 C8.9259962,25 12.4098672,25.7954545 14.7096774,25.8863636 L14.7096774,24.3181818 C14.5958254,24.3181818 14.459203,24.3181818 14.345351,24.3181818 C12.0910816,24.3181818 8.17457306,23.4090909 7.99240987,23.3636364 L7.96963947,23.3636364 L0.273244782,24.7954545 C1.18406072,25.2045455 2.34535104,25.6363636 3.48387097,25.9318182 L8.76660342,24.9545455 Z" id="Shape" fill="url(#linearGradient-14)" fill-rule="nonzero"></path>
                                <path d="M25.4573055,26.3863636 L25.4573055,20.0681818 L25.4117647,20.0681818 L25.3662239,20.0681818 L23.1574953,20.1818182 L17.4648956,20.5 C15.9165085,20.5909091 14.7096774,21.8636364 14.7096774,23.4090909 L14.7096774,24.3636364 L14.7096774,27.1136364 C17.9203036,27.0681818 21.540797,26.8409091 25.4573055,26.3863636 Z" id="Shape" fill="url(#linearGradient-15)" fill-rule="nonzero"></path>
                                <path d="M16.6451613,23.6818182 C16.6451613,22.1363636 17.8519924,20.8636364 19.4003795,20.7727273 L25.0929791,20.4545455 L25.4573055,20.4318182 L25.4573055,20.0454545 L25.4117647,20.0454545 L25.3662239,20.0454545 L23.1574953,20.1590909 L17.4648956,20.4772727 C15.9165085,20.5681818 14.7096774,21.8409091 14.7096774,23.3863636 L14.7096774,24.3409091 L14.7096774,27.0909091 C15.3472486,27.0909091 15.9848197,27.0681818 16.6679317,27.0454545 L16.6679317,24.6363636 L16.6679317,23.6818182 L16.6451613,23.6818182 Z" id="Shape" fill="url(#linearGradient-16)" fill-rule="nonzero"></path>
                                <path d="M0.45540797,26.6818182 C3.71157495,28.1818182 8.58444023,28.9772727 14.6641366,28.9318182 C14.7324478,28.9318182 14.8235294,28.9318182 14.8918406,28.9318182 C18.1252372,28.9090909 21.7229602,28.6818182 25.6622391,28.2272727 C27.6432638,28 29.71537,27.7272727 31.8557875,27.4090909 C36.9791271,26.6136364 41.7381404,25.6590909 45.4041746,24.8409091 C49.5256167,23.9318182 52.2352941,23.2045455 52.4402277,23.1363636 L52.4857685,23.1363636 L52.5313093,23.1590909 C54.0113852,24.0909091 54.9677419,26 55.3320683,27.5 C55.3320683,27.1136364 55.3320683,26.0454545 55.2637571,25.6590909 C55.0132827,23.8181818 54.0113852,22.3636364 52.3263757,21.3181818 L52.2808349,21.2954545 L52.2352941,21.2954545 C52.0303605,21.3409091 49.3206831,22.0681818 45.199241,23 C41.5332068,23.8181818 36.7741935,24.7727273 31.6508539,25.5681818 C29.5104364,25.8863636 27.4383302,26.1818182 25.4573055,26.3863636 C21.5180266,26.8409091 17.9203036,27.0681818 14.686907,27.0909091 C14.6185958,27.0909091 14.5275142,27.0909091 14.459203,27.0909091 C8.37950664,27.1136364 3.50664137,26.3181818 0.250474383,24.8181818 C0.227703985,25.2272727 0.0227703985,27.4772727 0.387096774,29.8863636 C0.29601518,28.2727273 0.432637571,26.9772727 0.45540797,26.6818182 Z" id="Shape" fill="url(#linearGradient-17)" fill-rule="nonzero"></path>
                                <path d="M0.45540797,26.8409091 C0.45540797,26.8409091 0.614800759,26.9090909 0.933586338,27.0454545 C1.09297913,27.1136364 1.27514231,27.1818182 1.5028463,27.2727273 C1.73055028,27.3636364 2.00379507,27.4318182 2.29981025,27.5454545 C2.43643264,27.5909091 2.59582543,27.6363636 2.77798861,27.6818182 C2.9373814,27.7272727 3.11954459,27.7727273 3.30170778,27.8181818 C3.66603416,27.9090909 4.05313093,28.0227273 4.4857685,28.0909091 C5.32827324,28.2727273 6.28462998,28.4545455 7.35483871,28.5909091 C8.40227704,28.7272727 9.56356736,28.8409091 10.7703985,28.9090909 C12,28.9772727 13.2751423,29 14.6185958,29 C15.2789374,29 15.9620493,28.9772727 16.6451613,28.9545455 C16.8273245,28.9545455 16.9867173,28.9545455 17.1688805,28.9318182 L17.4193548,28.9318182 L17.6698292,28.9090909 C18.0113852,28.8863636 18.3529412,28.8636364 18.7172676,28.8409091 C19.0588235,28.8181818 19.4231499,28.7954545 19.7647059,28.7727273 L20.0379507,28.75 L20.3111954,28.7272727 C20.4933586,28.7045455 20.6527514,28.7045455 20.8349146,28.6818182 C21.540797,28.6136364 22.2466793,28.5681818 22.9525617,28.5 C23.658444,28.4318182 24.3643264,28.3636364 25.0702087,28.2954545 C25.2523719,28.2727273 25.4117647,28.25 25.5939279,28.25 C25.7760911,28.2272727 25.9354839,28.2045455 26.1176471,28.1818182 C26.459203,28.1363636 26.8235294,28.0909091 27.1650854,28.0454545 C27.5066414,28 27.8481973,27.9545455 28.2125237,27.9090909 C28.3946869,27.8863636 28.5540797,27.8636364 28.7362429,27.8409091 C28.8956357,27.8181818 29.0777989,27.7954545 29.2371917,27.7727273 C29.9203036,27.6818182 30.5806452,27.5909091 31.2409867,27.4772727 C31.9013283,27.3863636 32.5388994,27.2727273 33.1764706,27.1818182 C33.8140417,27.0909091 34.4288425,26.9772727 35.0436433,26.8863636 C35.658444,26.7954545 36.227704,26.6818182 36.7969639,26.5909091 C37.3662239,26.5 37.9127135,26.3863636 38.4364326,26.2954545 C38.7096774,26.25 38.9601518,26.2045455 39.2106262,26.1590909 C39.4611006,26.1136364 39.711575,26.0681818 39.9392789,26.0227273 C40.4174573,25.9318182 40.8728653,25.8409091 41.3055028,25.7727273 C41.7381404,25.6818182 42.1252372,25.6136364 42.4895636,25.5454545 C42.8538899,25.4772727 43.1954459,25.4090909 43.4914611,25.3409091 C44.7210626,25.0909091 45.4041746,24.9545455 45.4041746,24.9545455 C45.4041746,24.9545455 44.7210626,25.1136364 43.4914611,25.3863636 C43.1954459,25.4545455 42.8538899,25.5227273 42.4895636,25.6136364 C42.1252372,25.6818182 41.71537,25.7727273 41.3055028,25.8636364 C40.8728653,25.9545455 40.4402277,26.0454545 39.9620493,26.1590909 C39.7343454,26.2045455 39.483871,26.25 39.2333966,26.3181818 C38.9829222,26.3636364 38.7324478,26.4090909 38.459203,26.4545455 C37.9354839,26.5454545 37.3889943,26.6590909 36.8197343,26.7727273 C36.2504744,26.8863636 35.6812144,27 35.0664137,27.0909091 C34.4743833,27.2045455 33.8368121,27.2954545 33.2220114,27.4090909 C32.9032258,27.4545455 32.5844402,27.5227273 32.2656546,27.5681818 C31.9468691,27.6136364 31.6053131,27.6818182 31.2865275,27.7272727 C30.626186,27.8181818 29.943074,27.9318182 29.2827324,28.0227273 C29.1233397,28.0454545 28.9411765,28.0681818 28.7817837,28.0909091 C28.5996205,28.1136364 28.4402277,28.1363636 28.2580645,28.1590909 C27.9165085,28.2045455 27.5749526,28.25 27.2106262,28.2954545 C26.8690702,28.3409091 26.5047438,28.3863636 26.1631879,28.4318182 C25.9810247,28.4545455 25.8216319,28.4772727 25.6394687,28.5 C25.4573055,28.5227273 25.2979127,28.5454545 25.1157495,28.5454545 C24.4098672,28.6136364 23.7039848,28.6818182 22.9981025,28.7727273 C22.2922201,28.8409091 21.5863378,28.8863636 20.8804554,28.9318182 C20.6982922,28.9545455 20.516129,28.9545455 20.3567362,28.9772727 L20.0834915,29 L19.8102467,29.0227273 C19.4459203,29.0454545 19.1043643,29.0681818 18.7628083,29.0681818 C18.4212524,29.0909091 18.056926,29.1136364 17.71537,29.1136364 L17.4648956,29.1363636 L17.2144213,29.1363636 C17.0322581,29.1363636 16.8728653,29.1363636 16.6907021,29.1363636 C16.0075901,29.1590909 15.3244782,29.1590909 14.6641366,29.1818182 C13.3206831,29.1818182 12.0455408,29.1363636 10.8159393,29.0454545 C9.58633776,28.9545455 8.44781784,28.8409091 7.37760911,28.6818182 C6.30740038,28.5227273 5.35104364,28.3409091 4.5085389,28.1363636 C4.07590133,28.0454545 3.68880455,27.9318182 3.32447818,27.8181818 C3.14231499,27.7727273 2.9829222,27.7045455 2.80075901,27.6590909 C2.64136622,27.6136364 2.48197343,27.5681818 2.32258065,27.5 C2.02656546,27.3863636 1.77609108,27.3181818 1.5483871,27.2045455 C1.32068311,27.1136364 1.13851992,27.0454545 0.979127135,26.9772727 C0.614800759,26.9318182 0.45540797,26.8409091 0.45540797,26.8409091 Z" id="Shape" fill="url(#linearGradient-18)" fill-rule="nonzero" opacity="0.5"></path>
                                <path d="M34.2239089,20.0681818 L41.0777989,20.0681818 L41.0777989,13.8863636 C41.0777989,13.8636364 41.0777989,13.8409091 41.0777989,13.8181818 C40.1669829,16.5681818 37.6166983,18.8636364 34.2239089,20.0681818 Z" id="Shape" fill="url(#linearGradient-20)" fill-rule="nonzero"></path>
                                <path d="M44.857685,23 L44.857685,22.9545455 C44.857685,21.3409091 43.5597723,20.0454545 41.943074,20.0454545 L41.0777989,20.0454545 L40.7362429,20.0454545 C40.7362429,20.0454545 40.7362429,20.0454545 40.7362429,20.0681818 C40.7362429,22.4772727 35.2713472,24.4545455 28.5313093,24.4545455 C27.4611006,24.4545455 26.4364326,24.4090909 25.4573055,24.3181818 L25.4573055,26.3863636 C27.4383302,26.1590909 29.5104364,25.8863636 31.6508539,25.5681818 C36.7741935,24.7727273 41.5332068,23.8181818 45.199241,23 L44.857685,23 Z" id="Shape" fill="url(#linearGradient-21)" fill-rule="nonzero"></path>
                                <g opacity="0.5" transform="translate(25.502846, 20.227273)"></g>
                                <g opacity="0.5" transform="translate(25.730550, 10.909091)"></g>
                                <path d="M55.2637571,25.6590909 C55.0132827,23.8181818 54.0113852,22.3636364 52.3263757,21.3181818 L52.2808349,21.2954545 L52.2352941,21.2954545 C52.2125237,21.2954545 52.0986717,21.3409091 51.9392789,21.3636364 C51.9848197,21.7045455 52.0075901,22.0454545 52.0075901,22.3863636 C52.0075901,28.4772727 44.8349146,33.4772727 35.6812144,34.0454545 C36.1366224,34.25 36.455408,34.5227273 36.5920304,34.9090909 C38.2087287,38.8636364 41.6470588,40.6590909 48.6148008,36.2954545 C55.5825427,31.9318182 48.4781784,39.9772727 48.4781784,39.9772727 L48.5237192,39.9772727 L48.5464896,39.9545455 C48.6375712,39.8181818 56.288425,33.1363636 55.2637571,25.6590909 Z" id="Shape" fill="url(#linearGradient-24)" fill-rule="nonzero"></path>
                                <path d="M55.2637571,25.6590909 C55.1043643,24.5909091 54.7172676,23.6363636 54.056926,22.8181818 C54.3074004,23.6136364 54.4212524,24.4545455 54.4212524,25.3181818 C54.4212524,31.8181818 47.0664137,37.0909091 37.9810247,37.0909091 C37.9582543,37.0909091 37.9127135,37.0909091 37.8899431,37.0909091 C39.8254269,39.3409091 43.1271347,39.7272727 48.6148008,36.2727273 C55.5825427,31.9090909 48.4781784,39.9545455 48.4781784,39.9545455 L48.5237192,39.9545455 L48.5464896,39.9318182 C48.6375712,39.8181818 56.288425,33.1363636 55.2637571,25.6590909 Z" id="Shape" fill="url(#linearGradient-25)" fill-rule="nonzero"></path>
                            </g>
                        </g>
                    </g>
                </g>
            </g>
        </g>
    </g>
</svg>