<?xml version="1.0" encoding="UTF-8"?>
<svg width="548px" height="176px" viewBox="0 0 548 176" version="1.1" xmlns="http://www.w3.org/2000/svg" xmlns:xlink="http://www.w3.org/1999/xlink">
    <!-- Generator: Sketch 49 (51002) - http://www.bohemiancoding.com/sketch -->
    <title>logo-light</title>
    <desc>Created with Sketch.</desc>
    <defs>
        <linearGradient x1="13.5069975%" y1="49.9582716%" x2="113.610433%" y2="49.9582716%" id="linearGradient-1">
            <stop stop-color="#FF99A9" offset="0%"></stop>
            <stop stop-color="#E75A71" offset="100%"></stop>
        </linearGradient>
        <linearGradient x1="-10.6745429%" y1="49.940399%" x2="99.9884669%" y2="49.940399%" id="linearGradient-2">
            <stop stop-color="#FF99A9" offset="0%"></stop>
            <stop stop-color="#E75A71" offset="100%"></stop>
        </linearGradient>
        <linearGradient x1="21.5499074%" y1="89.0752439%" x2="76.4964694%" y2="16.2028049%" id="linearGradient-3">
            <stop stop-color="#6887F7" offset="0%"></stop>
            <stop stop-color="#88C1F7" offset="100%"></stop>
        </linearGradient>
        <linearGradient x1="24.5846075%" y1="83.0054391%" x2="90.1660564%" y2="-13.643856%" id="linearGradient-4">
            <stop stop-color="#639CEB" offset="0%"></stop>
            <stop stop-color="#88C1F7" offset="100%"></stop>
        </linearGradient>
        <linearGradient x1="51.178022%" y1="-30.8933747%" x2="51.178022%" y2="125.024845%" id="linearGradient-5">
            <stop stop-color="#88C1F7" offset="0%"></stop>
            <stop stop-color="#6887F7" offset="100%"></stop>
        </linearGradient>
        <linearGradient x1="50.3626374%" y1="-102.633013%" x2="50.3626374%" y2="138.740385%" id="linearGradient-6">
            <stop stop-color="#88C1F7" offset="0%"></stop>
            <stop stop-color="#6887F7" offset="100%"></stop>
        </linearGradient>
        <linearGradient x1="50.2338983%" y1="-91.1030905%" x2="50.2338983%" y2="75.1408389%" id="linearGradient-7">
            <stop stop-color="#88C1F7" offset="0%"></stop>
            <stop stop-color="#6887F7" offset="100%"></stop>
        </linearGradient>
        <linearGradient x1="49.8206897%" y1="-250.63617%" x2="49.8206897%" y2="16.4152482%" id="linearGradient-8">
            <stop stop-color="#88C1F7" offset="0%"></stop>
            <stop stop-color="#6887F7" offset="100%"></stop>
        </linearGradient>
        <linearGradient x1="50.2338983%" y1="-39.5618102%" x2="50.2338983%" y2="126.682119%" id="linearGradient-9">
            <stop stop-color="#88C1F7" offset="0%"></stop>
            <stop stop-color="#4D94F7" offset="100%"></stop>
        </linearGradient>
        <linearGradient x1="49.8206897%" y1="-124.544326%" x2="49.8206897%" y2="142.507092%" id="linearGradient-10">
            <stop stop-color="#88C1F7" offset="0%"></stop>
            <stop stop-color="#4D94F7" offset="100%"></stop>
        </linearGradient>
        <linearGradient x1="17.2030847%" y1="49.8164894%" x2="117.42752%" y2="49.8164894%" id="linearGradient-11">
            <stop stop-color="#FF99A9" offset="0%"></stop>
            <stop stop-color="#E75A71" offset="100%"></stop>
        </linearGradient>
        <linearGradient x1="102.908189%" y1="116.256989%" x2="-30.5062284%" y2="-31.1523297%" id="linearGradient-12">
            <stop stop-color="#178287" offset="0%"></stop>
            <stop stop-color="#5DD9D3" offset="100%"></stop>
        </linearGradient>
        <linearGradient x1="48.4840694%" y1="27.9448923%" x2="81.7667192%" y2="129.646609%" id="linearGradient-13">
            <stop stop-color="#FF99A9" offset="0%"></stop>
            <stop stop-color="#E75A71" offset="100%"></stop>
        </linearGradient>
        <linearGradient x1="40.5862776%" y1="6.3840708%" x2="73.8794953%" y2="153.152212%" id="linearGradient-14">
            <stop stop-color="#FF99A9" offset="0%"></stop>
            <stop stop-color="#E75A71" offset="100%"></stop>
        </linearGradient>
        <linearGradient x1="26.8302966%" y1="207.803871%" x2="54.0597458%" y2="41.2774194%" id="linearGradient-15">
            <stop stop-color="#178287" offset="0%"></stop>
            <stop stop-color="#5DD9D3" offset="100%"></stop>
        </linearGradient>
        <linearGradient x1="20.3461864%" y1="205.66871%" x2="47.5756356%" y2="39.1422581%" id="linearGradient-16">
            <stop stop-color="#178287" offset="0%"></stop>
            <stop stop-color="#62E6DF" offset="100%"></stop>
        </linearGradient>
        <linearGradient x1="5.47138791%" y1="184.921693%" x2="60.4655194%" y2="26.8378307%" id="linearGradient-17">
            <stop stop-color="#6887F7" offset="0%"></stop>
            <stop stop-color="#88C1F7" offset="100%"></stop>
        </linearGradient>
        <linearGradient x1="8.71575481%" y1="63%" x2="87.0619554%" y2="46.8768817%" id="linearGradient-18">
            <stop stop-color="#FFFFFF" stop-opacity="0" offset="0%"></stop>
            <stop stop-color="#FFFFFF" offset="50%"></stop>
            <stop stop-color="#FFFFFF" stop-opacity="0" offset="100%"></stop>
        </linearGradient>
        <linearGradient x1="3.88%" y1="2.2320393%" x2="4.87%" y2="2.2320393%" id="linearGradient-19">
            <stop stop-color="#6887F7" offset="0%"></stop>
            <stop stop-color="#88C1F7" offset="100%"></stop>
        </linearGradient>
        <linearGradient x1="-228.321262%" y1="49.7730909%" x2="33.0784053%" y2="49.7730909%" id="linearGradient-20">
            <stop stop-color="#FF99A9" offset="0%"></stop>
            <stop stop-color="#E75A71" offset="100%"></stop>
        </linearGradient>
        <linearGradient x1="91.1322953%" y1="103.245878%" x2="-42.2820069%" y2="-44.1634409%" id="linearGradient-21">
            <stop stop-color="#178287" offset="0%"></stop>
            <stop stop-color="#5DD9D3" offset="100%"></stop>
        </linearGradient>
        <linearGradient x1="-0.21232687%" y1="48.5214286%" x2="99.9480609%" y2="48.5214286%" id="linearGradient-22">
            <stop stop-color="#FFFFFF" stop-opacity="0" offset="0%"></stop>
            <stop stop-color="#FFFFFF" offset="50%"></stop>
            <stop stop-color="#FFFFFF" stop-opacity="0" offset="100%"></stop>
        </linearGradient>
        <linearGradient x1="-0.139038462%" y1="50.15%" x2="100.080192%" y2="50.15%" id="linearGradient-23">
            <stop stop-color="#FFFFFF" stop-opacity="0" offset="0%"></stop>
            <stop stop-color="#FFFFFF" offset="50%"></stop>
            <stop stop-color="#FFFFFF" stop-opacity="0" offset="100%"></stop>
        </linearGradient>
        <linearGradient x1="-81.1535739%" y1="123.306448%" x2="73.0088928%" y2="50.6108273%" id="linearGradient-24">
            <stop stop-color="#6887F7" offset="0%"></stop>
            <stop stop-color="#88C1F7" offset="100%"></stop>
        </linearGradient>
        <linearGradient x1="-50.0510472%" y1="107.871883%" x2="123.603985%" y2="28.6201592%" id="linearGradient-25">
            <stop stop-color="#6887F7" offset="0%"></stop>
            <stop stop-color="#88C1F7" offset="100%"></stop>
        </linearGradient>
    </defs>
    <g id="logo-light" stroke="none" stroke-width="1" fill="none" fill-rule="evenodd">
        <g id="Kelda-Horizontal-logo-exported-by-me">
            <g id="Group" transform="translate(284.000000, 57.000000)" fill="#222339" fill-rule="nonzero">
                <polygon id="Shape" points="15.7 80.6 0 80.6 0 3 15.7 3 15.7 37.1 26.2 36 39 3 56.9 3 40 41.9 57.3 80.6 39.2 80.6 26.2 49.7 15.7 50.8"></polygon>
                <path d="M79.6,66.2 C81.4,67.8 84,68.5 87.3,68.5 C94.4,68.5 100.7,68.3 106.2,67.8 L109.4,67.5 L109.6,78.8 C100.9,80.9 92.9,82 85.9,82 C77.3,82 71.1,79.7 67.2,75.2 C63.3,70.6 61.4,63.2 61.4,53 C61.4,32.5 69.8,22.3 86.6,22.3 C103.2,22.3 111.5,30.9 111.5,48.1 L110.4,58.7 L76.9,58.7 C76.9,62.1 77.8,64.6 79.6,66.2 Z M96.4,46.9 C96.4,42.3 95.7,39.2 94.2,37.4 C92.8,35.6 90.2,34.7 86.6,34.7 C83,34.7 80.4,35.6 79,37.5 C77.5,39.4 76.7,42.5 76.7,46.9 L96.4,46.9 Z" id="Shape"></path>
                <polygon id="Shape" points="123.1 80.6 123.1 0.8 138.4 0.8 138.4 80.6"></polygon>
                <path d="M201.7,0.8 L201.7,80.6 L186.5,80.6 L186.5,78.2 C181.2,80.7 176.6,82 172.7,82 C164.4,82 158.6,79.6 155.4,74.8 C152.1,70 150.5,62.4 150.5,52 C150.5,41.6 152.5,34.1 156.4,29.3 C160.3,24.5 166.2,22.2 174.1,22.2 C176.5,22.2 179.9,22.6 184.3,23.3 L186.5,23.8 L186.5,0.8 L201.7,0.8 Z M184.8,66.9 L186.4,66.6 L186.4,36.6 C182.2,35.8 178.5,35.5 175.2,35.5 C169,35.5 166,41 166,51.9 C166,57.8 166.7,62.1 168.1,64.6 C169.5,67.1 171.7,68.4 174.9,68.4 C178,68.3 181.3,67.8 184.8,66.9 Z" id="Shape"></path>
                <path d="M259.5,41.4 L259.5,65.1 C259.7,66.9 260,68.2 260.4,68.9 C260.9,69.6 261.8,70.1 263.3,70.4 L262.8,81.9 C258.9,81.9 255.8,81.6 253.5,81.1 C251.2,80.6 248.8,79.5 246.5,77.9 C241,80.6 235.4,81.9 229.7,81.9 C217.9,81.9 212,75.7 212,63.2 C212,57.1 213.6,52.8 216.9,50.3 C220.2,47.8 225.2,46.3 232,45.8 L244.2,44.9 L244.2,41.4 C244.2,39 243.7,37.4 242.6,36.6 C241.5,35.7 239.8,35.3 237.5,35.3 L216.1,36.2 L215.6,25.6 C223.7,23.4 231.5,22.3 238.8,22.3 C246.1,22.3 251.4,23.8 254.7,26.9 C257.9,29.8 259.5,34.7 259.5,41.4 Z M233.9,56.4 C229.6,56.8 227.5,59.1 227.5,63.2 C227.5,67.4 229.4,69.5 233.1,69.5 C236,69.5 239.1,69 242.6,68.1 L244.3,67.6 L244.3,55.4 L233.9,56.4 Z" id="Shape"></path>
            </g>
            <g id="Group">
                <path d="M111.4,88.3 L111.6,88.3 L111.8,88.3 L180.3,88.3 L180.3,61.1 C180.3,54 174.6,48.3 167.5,48.3 L163.2,48.3 L162.8,48.3 L154.7,48.3 L154.3,48.3 L137,48.3 L136.6,48.3 L128.5,48.3 L128,48.3 L114.5,48.3 C107.4,48.3 101.7,54 101.7,61.1 L101.7,88.8 L111.4,88.3 Z M146,56.1 L146,67.4 L137.9,67.4 L137.9,56.1 L146,56.1 Z M160.3,67.4 L152.2,67.4 L152.2,56.1 L160.3,56.1 L160.3,67.4 Z M174.5,56.1 L174.5,67.4 L166.4,67.4 L166.4,56.1 L174.5,56.1 Z" id="Shape" fill="url(#linearGradient-1)" fill-rule="nonzero"></path>
                <path d="M167.6,48.3 L163.3,48.3 L162.9,48.3 L154.8,48.3 L154.4,48.3 L154,48.3 C154.2,49.6 154.3,50.8 154.3,52.1 C154.3,53.5 154.2,54.8 153.9,56.1 L160.3,56.1 L160.3,67.4 L152.2,67.4 L152.2,61.6 C146.6,73.9 130.4,83.9 109.3,88.4 L111.5,88.3 L111.7,88.3 L111.9,88.3 L180.4,88.3 L180.4,61.1 C180.4,54 174.7,48.3 167.6,48.3 Z M174.5,67.4 L166.4,67.4 L166.4,56.1 L174.5,56.1 L174.5,67.4 Z" id="Shape" fill="url(#linearGradient-2)" fill-rule="nonzero"></path>
                <path d="M212.9,175.8 L213.1,175.8 L213.2,175.7 C213.6,175.3 247.2,145.9 242.7,113 C241.6,104.9 237.2,98.5 229.8,93.9 L229.6,93.8 L229.4,93.8 C228.5,94 216.6,97.2 198.5,101.3 C182.4,104.9 161.5,109.1 139,112.6 C129.6,114 120.5,115.3 111.8,116.2 C94.5,118.2 78.7,119.2 64.5,119.3 C64.2,119.3 63.8,119.3 63.5,119.3 C36.8,119.4 15.4,115.9 1.1,109.3 C0.7,112.5 -1.9,141.9 12.5,155.1 C12.5,155.1 80.4,142.2 73.6,154.4 C66.8,166.5 153.7,136.2 160.7,153.6 C167.8,171 182.9,178.9 213.5,159.7 C244.1,140.5 212.9,175.8 212.9,175.8 Z" id="Shape" fill="url(#linearGradient-3)" fill-rule="nonzero"></path>
                <path d="M171.4,149.5 C164.3,132.1 77.5,162.4 84.3,150.3 C91.1,138.2 17.2,151.7 17.2,151.7 C6.8,142.1 1.1,119.7 1.2,109.3 C-2.5,108.2 4.3,110.7 1.2,109.3 C0.8,112.5 -1.8,141.9 12.6,155.1 C12.6,155.1 80.5,142.2 73.7,154.4 C66.9,166.5 153.8,136.2 160.8,153.6 C167,168.9 179.5,176.8 203.2,165.5 C186.2,170 176.6,162.4 171.4,149.5 Z" id="Shape" fill="url(#linearGradient-4)" fill-rule="nonzero"></path>
                <rect id="Rectangle-path" x="152.1" y="56.1" width="8.1" height="11.3"></rect>
                <rect id="Rectangle-path" x="137.8" y="56.1" width="8.1" height="11.3"></rect>
                <rect id="Rectangle-path" x="166.4" y="56.1" width="8.1" height="11.3"></rect>
                <rect id="Rectangle-path" fill="#222339" fill-rule="nonzero" x="166.4" y="56.1" width="1" height="11.3"></rect>
                <rect id="Rectangle-path" fill="#222339" fill-rule="nonzero" x="146" y="56.1" width="1" height="11.3"></rect>
                <path d="M162.8,48.3 L163.2,48.3 L163.2,4.5 C163.2,2 161.2,0 158.7,0 L158.6,0 C156.1,0 154.1,2 154.1,4.5 L154.1,48.3 L154.5,48.3 L162.8,48.3 Z" id="Shape" fill="url(#linearGradient-5)" fill-rule="nonzero"></path>
                <path d="M136.6,48.3 L137,48.3 L137,21.6 C137,19.1 135,17.1 132.5,17.1 L132.4,17.1 C129.9,17.1 127.9,19.1 127.9,21.6 L127.9,48.3 L128.3,48.3 L136.6,48.3 Z" id="Shape" fill="url(#linearGradient-6)" fill-rule="nonzero"></path>
                <path d="M163.3,48.3 L163.3,4.5 C163.3,4 163.2,3.6 163.1,3.2 C162.7,3 162.4,3 162,3 L161.9,3 C159.4,3 157.4,5 157.4,7.5 L157.4,48.3 L162.8,48.3 L163.3,48.3 Z" id="Shape" fill="url(#linearGradient-7)" fill-rule="nonzero"></path>
                <path d="M137,48.3 L137,21.6 C137,21.1 136.9,20.7 136.8,20.3 C136.5,20.2 136.1,20.2 135.8,20.2 L135.7,20.2 C133.2,20.2 131.2,22.2 131.2,24.7 L131.2,48.4 L136.6,48.4 L137,48.4 L137,48.3 Z" id="Shape" fill="url(#linearGradient-8)" fill-rule="nonzero"></path>
                <g transform="translate(131.000000, 3.000000)" fill-rule="nonzero" id="Shape">
                    <path d="M32.3,45.3 L32.3,1.5 C32.3,1 32.2,0.6 32.1,0.2 C31.7,0 31.4,0 31,0 L30.9,0 C28.4,0 26.4,2 26.4,4.5 L26.4,45.3 L31.8,45.3 L32.3,45.3 Z" fill="url(#linearGradient-9)"></path>
                    <path d="M6,45.3 L6,18.6 C6,18.1 5.9,17.7 5.8,17.3 C5.5,17.2 5.1,17.2 4.8,17.2 L4.7,17.2 C2.2,17.2 0.2,19.2 0.2,21.7 L0.2,45.4 L5.6,45.4 L6,45.4 L6,45.3 Z" fill="url(#linearGradient-10)"></path>
                </g>
                <path d="M167.6,48.3 L163.3,48.3 L162.9,48.3 L154.8,48.3 L154.4,48.3 L137,48.3 L136.6,48.3 L128.5,48.3 L128,48.3 L114.5,48.3 C107.4,48.3 101.7,54 101.7,61.1 L101.7,67.1 C101.7,60 107.4,54.3 114.5,54.3 L128,54.3 L128.4,54.3 L136.5,54.3 L136.9,54.3 L154.2,54.3 L154.6,54.3 L162.7,54.3 L163.1,54.3 L167.4,54.3 C169.8,54.3 172.1,55 174,56.2 L174.3,56.2 L174.3,56.4 C177.8,58.7 180.2,62.6 180.2,67.1 L180.2,61.1 C180.4,54 174.7,48.3 167.6,48.3 Z" id="Shape" fill="url(#linearGradient-11)" fill-rule="nonzero"></path>
                <path d="M111.8,116.1 C120.5,115.1 129.6,113.9 139,112.5 C161.5,109 182.4,104.8 198.5,101.2 L197,101.2 L197,101 C197,93.9 191.3,88.2 184.2,88.2 L180.4,88.2 L111.9,88.2 L111.9,116.1 L111.8,116.1 Z" id="Shape" fill="url(#linearGradient-12)" fill-rule="nonzero"></path>
                <polygon id="Shape" fill="#7DCFB6" fill-rule="nonzero" points="111.4 88.3 111.4 88.3 111.6 88.3"></polygon>
                <path d="M63.6,119.2 C63.9,119.2 64.3,119.2 64.6,119.2 L64.6,107.1 C64.1,107.1 63.5,107.1 63,107.1 C53.1,107.1 35.9,103.1 35.1,102.9 L35,102.9 L1.2,109.2 C15.4,115.8 36.8,119.3 63.6,119.2 Z" id="Shape" fill="url(#linearGradient-13)" fill-rule="nonzero"></path>
                <path d="M38.5,109.8 C39.2,110 54.5,113.5 64.6,113.9 L64.6,107 C64.1,107 63.5,107 63,107 C53.1,107 35.9,103 35.1,102.8 L35,102.8 L1.2,109.1 C5.2,110.9 10.3,112.8 15.3,114.1 L38.5,109.8 Z" id="Shape" fill="url(#linearGradient-14)" fill-rule="nonzero"></path>
                <path d="M111.8,116.1 L111.8,88.3 L111.6,88.3 L111.4,88.3 L101.7,88.8 L76.7,90.2 C69.9,90.6 64.6,96.2 64.6,103 L64.6,107.2 L64.6,119.3 C78.7,119.1 94.6,118.1 111.8,116.1 Z" id="Shape" fill="url(#linearGradient-15)" fill-rule="nonzero"></path>
                <path d="M73.1,104.2 C73.1,97.4 78.4,91.8 85.2,91.4 L110.2,90 L111.8,89.9 L111.8,88.2 L111.6,88.2 L111.4,88.2 L101.7,88.7 L76.7,90.1 C69.9,90.5 64.6,96.1 64.6,102.9 L64.6,107.1 L64.6,119.2 C67.4,119.2 70.2,119.1 73.2,119 L73.2,108.4 L73.2,104.2 L73.1,104.2 Z" id="Shape" fill="url(#linearGradient-16)" fill-rule="nonzero"></path>
                <path d="M2,117.4 C16.3,124 37.7,127.5 64.4,127.3 C64.7,127.3 65.1,127.3 65.4,127.3 C79.6,127.2 95.4,126.2 112.7,124.2 C121.4,123.2 130.5,122 139.9,120.6 C162.4,117.1 183.3,112.9 199.4,109.3 C217.5,105.3 229.4,102.1 230.3,101.8 L230.5,101.8 L230.7,101.9 C237.2,106 241.4,114.4 243,121 C243,119.3 243,114.6 242.7,112.9 C241.6,104.8 237.2,98.4 229.8,93.8 L229.6,93.7 L229.4,93.7 C228.5,93.9 216.6,97.1 198.5,101.2 C182.4,104.8 161.5,109 139,112.5 C129.6,113.9 120.5,115.2 111.8,116.1 C94.5,118.1 78.7,119.1 64.5,119.2 C64.2,119.2 63.8,119.2 63.5,119.2 C36.8,119.3 15.4,115.8 1.1,109.2 C1,111 0.1,120.9 1.7,131.5 C1.3,124.4 1.9,118.7 2,117.4 Z" id="Shape" fill="url(#linearGradient-17)" fill-rule="nonzero"></path>
                <path d="M2,118.1 C2,118.1 2.7,118.4 4.1,119 C4.8,119.3 5.6,119.6 6.6,120 C7.6,120.4 8.8,120.7 10.1,121.2 C10.7,121.4 11.4,121.6 12.2,121.8 C12.9,122 13.7,122.2 14.5,122.4 C16.1,122.8 17.8,123.3 19.7,123.6 C23.4,124.4 27.6,125.2 32.3,125.8 C36.9,126.4 42,126.9 47.3,127.2 C52.7,127.5 58.3,127.6 64.2,127.6 C67.1,127.6 70.1,127.5 73.1,127.4 C73.9,127.4 74.6,127.4 75.4,127.3 L76.5,127.3 L77.6,127.2 C79.1,127.1 80.6,127 82.2,126.9 C83.7,126.8 85.3,126.7 86.8,126.6 L88,126.5 L89.2,126.4 C90,126.3 90.7,126.3 91.5,126.2 C94.6,125.9 97.7,125.7 100.8,125.4 C103.9,125.1 107,124.8 110.1,124.5 C110.9,124.4 111.6,124.3 112.4,124.3 C113.2,124.2 113.9,124.1 114.7,124 C116.2,123.8 117.8,123.6 119.3,123.4 C120.8,123.2 122.3,123 123.9,122.8 C124.7,122.7 125.4,122.6 126.2,122.5 C126.9,122.4 127.7,122.3 128.4,122.2 C131.4,121.8 134.3,121.4 137.2,120.9 C140.1,120.5 142.9,120 145.7,119.6 C148.5,119.2 151.2,118.7 153.9,118.3 C156.6,117.9 159.1,117.4 161.6,117 C164.1,116.6 166.5,116.1 168.8,115.7 C170,115.5 171.1,115.3 172.2,115.1 C173.3,114.9 174.4,114.7 175.4,114.5 C177.5,114.1 179.5,113.7 181.4,113.4 C183.3,113 185,112.7 186.6,112.4 C188.2,112.1 189.7,111.8 191,111.5 C196.4,110.4 199.4,109.8 199.4,109.8 C199.4,109.8 196.4,110.5 191,111.7 C189.7,112 188.2,112.3 186.6,112.7 C185,113 183.2,113.4 181.4,113.8 C179.5,114.2 177.6,114.6 175.5,115.1 C174.5,115.3 173.4,115.5 172.3,115.8 C171.2,116 170.1,116.2 168.9,116.4 C166.6,116.8 164.2,117.3 161.7,117.8 C159.2,118.3 156.7,118.8 154,119.2 C151.4,119.7 148.6,120.1 145.9,120.6 C144.5,120.8 143.1,121.1 141.7,121.3 C140.3,121.5 138.8,121.8 137.4,122 C134.5,122.4 131.5,122.9 128.6,123.3 C127.9,123.4 127.1,123.5 126.4,123.6 C125.6,123.7 124.9,123.8 124.1,123.9 C122.6,124.1 121.1,124.3 119.5,124.5 C118,124.7 116.4,124.9 114.9,125.1 C114.1,125.2 113.4,125.3 112.6,125.4 C111.8,125.5 111.1,125.6 110.3,125.6 C107.2,125.9 104.1,126.2 101,126.6 C97.9,126.9 94.8,127.1 91.7,127.3 C90.9,127.4 90.1,127.4 89.4,127.5 L88.2,127.6 L87,127.7 C85.4,127.8 83.9,127.9 82.4,127.9 C80.9,128 79.3,128.1 77.8,128.1 L76.7,128.2 L75.6,128.2 C74.8,128.2 74.1,128.2 73.3,128.2 C70.3,128.3 67.3,128.3 64.4,128.4 C58.5,128.4 52.9,128.2 47.5,127.8 C42.1,127.4 37.1,126.9 32.4,126.2 C27.7,125.5 23.5,124.7 19.8,123.8 C17.9,123.4 16.2,122.9 14.6,122.4 C13.8,122.2 13.1,121.9 12.3,121.7 C11.6,121.5 10.9,121.3 10.2,121 C8.9,120.5 7.8,120.2 6.8,119.7 C5.8,119.3 5,119 4.3,118.7 C2.7,118.5 2,118.1 2,118.1 Z" id="Shape" fill="url(#linearGradient-18)" fill-rule="nonzero" opacity="0.5"></path>
                <path d="M1.1,109.3 C1.2,109.4 1.1,109.1 1.1,109.3 C1.1,109.1 1.2,109.4 1.1,109.3 Z" id="Shape" fill="url(#linearGradient-19)" fill-rule="nonzero"></path>
                <path d="M150.3,88.3 L180.4,88.3 L180.4,61.1 C180.4,61 180.4,60.9 180.4,60.8 C176.4,72.9 165.2,83 150.3,88.3 Z" id="Shape" fill="url(#linearGradient-20)" fill-rule="nonzero"></path>
                <path d="M197,101.2 L197,101 C197,93.9 191.3,88.2 184.2,88.2 L180.4,88.2 L178.9,88.2 C178.9,88.2 178.9,88.2 178.9,88.3 C178.9,98.9 154.9,107.6 125.3,107.6 C120.6,107.6 116.1,107.4 111.8,107 L111.8,116.1 C120.5,115.1 129.6,113.9 139,112.5 C161.5,109 182.4,104.8 198.5,101.2 L197,101.2 Z" id="Shape" fill="url(#linearGradient-21)" fill-rule="nonzero"></path>
                <g opacity="0.5" transform="translate(112.000000, 89.000000)" fill="url(#linearGradient-22)" fill-rule="nonzero" id="Shape">
                    <path d="M72.2,0.8 C72.2,0.8 67.7,1.1 60.9,1.2 C59.2,1.2 57.4,1.3 55.4,1.3 C53.5,1.3 51.4,1.4 49.3,1.4 C47.2,1.4 45,1.5 42.8,1.5 C40.6,1.5 38.3,1.5 36.1,1.5 C33.8,1.5 31.6,1.5 29.4,1.5 C27.2,1.5 25,1.5 22.9,1.4 C18.7,1.3 14.7,1.3 11.3,1.2 C4.5,1 1.42108547e-14,0.8 1.42108547e-14,0.8 C1.42108547e-14,0.8 4.5,0.5 11.3,0.4 C14.7,0.3 18.6,0.2 22.9,0.2 C25,0.2 27.2,0.1 29.4,0.1 C31.6,0.1 33.9,0.1 36.1,0.1 C38.4,0.1 40.6,0.1 42.8,0.1 C45,0.1 47.2,0.1 49.3,0.2 C51.4,0.2 53.5,0.3 55.4,0.3 C57.3,0.3 59.2,0.4 60.9,0.4 C67.6,0.5 72.2,0.8 72.2,0.8 Z"></path>
                </g>
                <g opacity="0.5" transform="translate(113.000000, 48.000000)" fill="url(#linearGradient-23)" fill-rule="nonzero" id="Shape">
                    <path d="M52.6,0.7 C52.6,0.7 49.3,1 44.5,1.1 C43.3,1.1 42,1.2 40.6,1.2 C39.2,1.2 37.7,1.3 36.2,1.3 C34.7,1.3 33.1,1.4 31.5,1.4 C29.9,1.4 28.3,1.4 26.6,1.4 C25,1.4 23.3,1.4 21.7,1.4 C20.1,1.4 18.5,1.4 17,1.3 C13.9,1.2 11.1,1.2 8.7,1.1 C3.8,0.9 0.6,0.7 0.6,0.7 C0.6,0.7 3.9,0.4 8.7,0.3 C11.1,0.2 14,0.1 17,0.1 C18.5,0.1 20.1,0 21.7,0 C23.3,0 24.9,0 26.6,0 C28.2,0 29.9,0 31.5,0 C33.1,0 34.7,0 36.2,0.1 C37.7,0.1 39.2,0.2 40.6,0.2 C42,0.2 43.3,0.3 44.5,0.3 C49.4,0.4 52.6,0.7 52.6,0.7 Z"></path>
                </g>
                <path d="M242.7,112.9 C241.6,104.8 237.2,98.4 229.8,93.8 L229.6,93.7 L229.4,93.7 C229.3,93.7 228.8,93.9 228.1,94 C228.3,95.5 228.4,97 228.4,98.5 C228.4,125.3 196.9,147.3 156.7,149.8 C158.7,150.7 160.1,151.9 160.7,153.6 C167.8,171 182.9,178.9 213.5,159.7 C244.1,140.5 212.9,175.9 212.9,175.9 L213.1,175.9 L213.2,175.8 C213.6,175.2 247.2,145.8 242.7,112.9 Z" id="Shape" fill="url(#linearGradient-24)" fill-rule="nonzero"></path>
                <path d="M242.7,112.9 C242,108.2 240.3,104 237.4,100.4 C238.5,103.9 239,107.6 239,111.4 C239,140 206.7,163.2 166.8,163.2 C166.7,163.2 166.5,163.2 166.4,163.2 C174.9,173.1 189.4,174.8 213.5,159.6 C244.1,140.4 212.9,175.8 212.9,175.8 L213.1,175.8 L213.2,175.7 C213.6,175.2 247.2,145.8 242.7,112.9 Z" id="Shape" fill="url(#linearGradient-25)" fill-rule="nonzero"></path>
            </g>
        </g>
    </g>
</svg>