<?xml version="1.0" encoding="UTF-8"?>
<svg width="54px" height="40px" viewBox="0 0 54 40" version="1.1" xmlns="http://www.w3.org/2000/svg" xmlns:xlink="http://www.w3.org/1999/xlink">
    <!-- Generator: Sketch 48.2 (47327) - http://www.bohemiancoding.com/sketch -->
    <title>why-kelda-01</title>
    <desc>Created with Sketch.</desc>
    <defs></defs>
    <g id="Homepage" stroke="none" stroke-width="1" fill="none" fill-rule="evenodd" transform="translate(-250.000000, -1981.000000)">
        <g id="why-kelda?" transform="translate(249.000000, 1854.000000)" fill-rule="nonzero">
            <g id="copy">
                <g id="column" transform="translate(0.000000, 112.000000)">
                    <g id="why-kelda-01" transform="translate(1.000000, 15.000000)">
                        <rect id="Rectangle-path" fill="#F6705D" x="6.8" y="11.36" width="6.32" height="1.2"></rect>
                        <rect id="Rectangle-path" fill="#5F5F5F" x="14.56" y="11.36" width="1.2" height="1.2"></rect>
                        <rect id="Rectangle-path" fill="#5F5F5F" x="17.12" y="11.36" width="1.2" height="1.2"></rect>
                        <rect id="Rectangle-path" fill="#5F5F5F" x="6.8" y="15.04" width="3.84" height="1.2"></rect>
                        <rect id="Rectangle-path" fill="#F6705D" x="12.08" y="15.04" width="2.32" height="1.2"></rect>
                        <rect id="Rectangle-path" fill="#5F5F5F" x="15.92" y="15.04" width="8.88" height="1.2"></rect>
                        <rect id="Rectangle-path" fill="#F6705D" x="32.24" y="30" width="4.48" height="1.2"></rect>
                        <rect id="Rectangle-path" fill="#5F5F5F" x="22.08" y="30" width="8.72" height="1.2"></rect>
                        <rect id="Rectangle-path" fill="#F6705D" x="6.8" y="30" width="13.68" height="1.2"></rect>
                        <rect id="Rectangle-path" fill="#5F5F5F" x="33.76" y="22.48" width="1.2" height="1.2"></rect>
                        <rect id="Rectangle-path" fill="#5F5F5F" x="36.32" y="22.48" width="1.2" height="1.2"></rect>
                        <rect id="Rectangle-path" fill="#F6705D" x="20.4" y="22.48" width="11.76" height="1.2"></rect>
                        <rect id="Rectangle-path" fill="#5F5F5F" x="14.4" y="22.48" width="4.64" height="1.2"></rect>
                        <rect id="Rectangle-path" fill="#F6705D" x="38.96" y="22.48" width="7.84" height="1.2"></rect>
                        <rect id="Rectangle-path" fill="#5F5F5F" x="14.4" y="18.8" width="6.08" height="1.2"></rect>
                        <rect id="Rectangle-path" fill="#5F5F5F" x="31.92" y="18.8" width="14.8" height="1.2"></rect>
                        <rect id="Rectangle-path" fill="#F6705D" x="21.84" y="18.8" width="1.2" height="1.2"></rect>
                        <rect id="Rectangle-path" fill="#F6705D" x="24.4" y="18.8" width="1.2" height="1.2"></rect>
                        <rect id="Rectangle-path" fill="#F6705D" x="26.96" y="18.8" width="1.2" height="1.2"></rect>
                        <rect id="Rectangle-path" fill="#F6705D" x="29.52" y="18.8" width="1.2" height="1.2"></rect>
                        <rect id="Rectangle-path" fill="#5F5F5F" x="14.56" y="26.24" width="9.04" height="1.2"></rect>
                        <rect id="Rectangle-path" fill="#5F5F5F" x="25.04" y="26.24" width="4.96" height="1.2"></rect>
                        <rect id="Rectangle-path" fill="#F6705D" x="9.36" y="26.24" width="1.2" height="1.2"></rect>
                        <rect id="Rectangle-path" fill="#F6705D" x="6.8" y="26.24" width="1.2" height="1.2"></rect>
                        <rect id="Rectangle-path" fill="#F6705D" x="11.92" y="26.24" width="1.2" height="1.2"></rect>
                        <path d="M50.8,0.48 L2.8,0.48 C1.6,0.48 0.64,1.44 0.64,2.64 L0.64,37.2 C0.64,38.4 1.6,39.44 2.88,39.44 L19.76,39.44 L34,39.44 L50.88,39.44 C52.08,39.44 53.12,38.48 53.12,37.2 L53.12,2.64 C53.04,1.44 52,0.48 50.8,0.48 Z M51.84,37.2 C51.84,37.76 51.36,38.24 50.8,38.24 L2.8,38.24 C2.24,38.24 1.84,37.76 1.84,37.2 L1.84,35.68 L51.84,35.68 L51.84,37.2 Z M51.84,34.48 L1.84,34.48 L1.84,7.44 L51.84,7.44 L51.84,34.48 Z M51.84,6.24 L1.84,6.24 L1.84,2.64 C1.84,2.08 2.32,1.6 2.8,1.6 L50.8,1.6 C51.36,1.6 51.84,2.08 51.84,2.64 L51.84,6.24 Z" id="Shape" fill="#5F5F5F"></path>
                        <rect id="Rectangle-path" fill="#5F5F5F" x="44.48" y="3.52" width="1.2" height="1.2"></rect>
                        <rect id="Rectangle-path" fill="#5F5F5F" x="47.52" y="3.52" width="1.2" height="1.2"></rect>
                        <rect id="Rectangle-path" fill="#5F5F5F" x="41.44" y="3.52" width="1.2" height="1.2"></rect>
                        <rect id="Rectangle-path" fill="#5F5F5F" x="5.36" y="3.52" width="32.08" height="1.2"></rect>
                    </g>
                </g>
            </g>
        </g>
    </g>
</svg>