<?xml version="1.0" encoding="UTF-8"?>
<svg width="40px" height="40px" viewBox="0 0 40 40" version="1.1" xmlns="http://www.w3.org/2000/svg" xmlns:xlink="http://www.w3.org/1999/xlink">
    <!-- Generator: Sketch 48.2 (47327) - http://www.bohemiancoding.com/sketch -->
    <title>why-kelda-02</title>
    <desc>Created with Sketch.</desc>
    <defs></defs>
    <g id="Homepage" stroke="none" stroke-width="1" fill="none" fill-rule="evenodd" transform="translate(-570.000000, -1981.000000)">
        <g id="why-kelda?" transform="translate(249.000000, 1854.000000)" fill-rule="nonzero">
            <g id="copy">
                <g id="column-copy" transform="translate(320.000000, 127.000000)">
                    <g id="why-kelda-02" transform="translate(1.000000, 0.000000)">
                        <path d="M9.67716535,13.5511811 C6.11811024,13.5511811 3.22834646,16.4409449 3.22834646,20 C3.22834646,20.3543307 3.51968504,20.6456693 3.87401575,20.6456693 C4.22834646,20.6456693 4.51968504,20.3543307 4.51968504,20 C4.51968504,17.1574803 6.83464567,14.8425197 9.67716535,14.8425197 C10.0314961,14.8425197 10.3228346,14.5511811 10.3228346,14.1968504 C10.3228346,13.8346457 10.0314961,13.5511811 9.67716535,13.5511811 Z" id="Shape" fill="#F6705D"></path>
                        <path d="M33.5511811,9.67716535 C35.3307087,9.67716535 36.7795276,8.22834646 36.7795276,6.4488189 C36.7795276,4.66929134 35.3307087,3.22047244 33.5511811,3.22047244 C31.7716535,3.22047244 30.3228346,4.66929134 30.3228346,6.4488189 C30.3228346,8.22834646 31.7716535,9.67716535 33.5511811,9.67716535 Z M33.5511811,4.51968504 C34.6220472,4.51968504 35.488189,5.38582677 35.488189,6.45669291 C35.488189,7.52755906 34.6220472,8.39370079 33.5511811,8.39370079 C32.480315,8.39370079 31.6141732,7.52755906 31.6141732,6.45669291 C31.6141732,5.38582677 32.480315,4.51968504 33.5511811,4.51968504 Z" id="Shape" fill="#F6705D"></path>
                        <path d="M33.5511811,30.3228346 C31.7716535,30.3228346 30.3228346,31.7716535 30.3228346,33.5511811 C30.3228346,35.3307087 31.7716535,36.7795276 33.5511811,36.7795276 C35.3307087,36.7795276 36.7795276,35.3307087 36.7795276,33.5511811 C36.7795276,31.7716535 35.3307087,30.3228346 33.5511811,30.3228346 Z M33.5511811,35.480315 C32.480315,35.480315 31.6141732,34.6141732 31.6141732,33.5433071 C31.6141732,32.4724409 32.480315,31.6062992 33.5511811,31.6062992 C34.6220472,31.6062992 35.488189,32.4724409 35.488189,33.5433071 C35.488189,34.6141732 34.6141732,35.480315 33.5511811,35.480315 Z" id="Shape" fill="#F6705D"></path>
                        <path d="M33.5511811,27.0944882 C31.3858268,27.0944882 29.4645669,28.1732283 28.2913386,29.8188976 L18.3858268,24.1968504 C19,22.9212598 19.3543307,21.503937 19.3543307,20 C19.3543307,18.496063 19,17.0708661 18.3858268,15.8031496 L28.2913386,10.1811024 C29.4645669,11.8267717 31.3779528,12.9055118 33.5511811,12.9055118 C37.1102362,12.9055118 40,10.007874 40,6.45669291 C40,2.90551181 37.1023622,0 33.5511811,0 C30,0 27.1023622,2.8976378 27.1023622,6.4488189 C27.1023622,7.37795276 27.2992126,8.25984252 27.6535433,9.05511811 L17.7559055,14.6771654 C16.023622,12.0551181 13.0551181,10.3228346 9.68503937,10.3228346 C4.33858268,10.3228346 0,14.6614173 0,20 C0,25.3385827 4.33858268,29.6771654 9.67716535,29.6771654 C13.0472441,29.6771654 16.015748,27.9448819 17.7480315,25.3228346 L27.6535433,30.9448819 C27.2992126,31.7401575 27.1023622,32.6220472 27.1023622,33.5511811 C27.1023622,37.1102362 30,40 33.5511811,40 C37.1023622,40 40,37.1023622 40,33.5511811 C40,30 37.1023622,27.0944882 33.5511811,27.0944882 Z M33.5511811,1.29133858 C36.3937008,1.29133858 38.7086614,3.60629921 38.7086614,6.4488189 C38.7086614,9.29133858 36.3937008,11.6062992 33.5511811,11.6062992 C30.7086614,11.6062992 28.3937008,9.29133858 28.3937008,6.4488189 C28.3937008,3.60629921 30.7007874,1.29133858 33.5511811,1.29133858 Z M9.67716535,28.3858268 C5.05511811,28.3858268 1.29133858,24.6220472 1.29133858,20 C1.29133858,15.3779528 5.05511811,11.6141732 9.67716535,11.6141732 C14.2992126,11.6141732 18.0629921,15.3779528 18.0629921,20 C18.0629921,24.6220472 14.2992126,28.3858268 9.67716535,28.3858268 Z M33.5511811,38.7086614 C30.7086614,38.7086614 28.3937008,36.3937008 28.3937008,33.5511811 C28.3937008,30.7086614 30.7086614,28.3937008 33.5511811,28.3937008 C36.3937008,28.3937008 38.7086614,30.7086614 38.7086614,33.5511811 C38.7086614,36.3937008 36.3937008,38.7086614 33.5511811,38.7086614 Z" id="Shape" fill="#5F5F5F"></path>
                        <rect id="Rectangle-path" fill="#F6705D" x="23.2440945" y="19.3543307" width="1.27559055" height="1.29133858"></rect>
                        <rect id="Rectangle-path" fill="#F6705D" x="25.8110236" y="19.3543307" width="1.27559055" height="1.29133858"></rect>
                        <rect id="Rectangle-path" fill="#F6705D" x="28.3858268" y="19.3543307" width="1.27559055" height="1.29133858"></rect>
                    </g>
                </g>
            </g>
        </g>
    </g>
</svg>