<?xml version="1.0" encoding="UTF-8"?>
<svg width="42px" height="42px" viewBox="0 0 42 42" version="1.1" xmlns="http://www.w3.org/2000/svg" xmlns:xlink="http://www.w3.org/1999/xlink">
    <!-- Generator: Sketch 48.2 (47327) - http://www.bohemiancoding.com/sketch -->
    <title>why-kelda-03</title>
    <desc>Created with Sketch.</desc>
    <defs></defs>
    <g id="Homepage" stroke="none" stroke-width="1" fill="none" fill-rule="evenodd" transform="translate(-889.000000, -1980.000000)">
        <g id="why-kelda?" transform="translate(249.000000, 1854.000000)">
            <g id="copy">
                <g id="column-copy-2" transform="translate(640.000000, 127.000000)">
                    <g id="why-kelda-03" transform="translate(1.000000, 0.000000)">
                        <path d="M2.3793911,39.9156909 L28.4777518,39.9156909 C29.7517564,39.9156909 30.7822014,38.8852459 30.7822014,37.6112412 L30.7822014,6.90398126 C30.7822014,5.62997658 29.7517564,4.59953162 28.4777518,4.59953162 L21.7142857,4.59953162 C21.0210773,3.40983607 19.8313817,2.55737705 18.4168618,2.35128806 C18.088993,1.00234192 16.8805621,0 15.4285714,0 C13.9859485,0 12.7681499,1.00234192 12.440281,2.35128806 C11.0257611,2.55737705 9.83606557,3.41920375 9.14285714,4.59953162 L2.3793911,4.59953162 C1.10538642,4.59953162 0.074941452,5.62997658 0.074941452,6.90398126 L0.074941452,37.6018735 C0.0843091335,38.8758782 1.1147541,39.9156909 2.3793911,39.9156909 Z M10.0608899,6.90398126 C10.0608899,5.20843091 11.4379391,3.83138173 13.1334895,3.83138173 L13.9016393,3.83138173 L13.9016393,3.06323185 C13.9016393,2.22014052 14.5948478,1.52693208 15.4379391,1.52693208 C16.2810304,1.52693208 16.9742389,2.22014052 16.9742389,3.06323185 L16.9742389,3.83138173 L17.7423888,3.83138173 C19.4379391,3.83138173 20.8149883,5.20843091 20.8149883,6.90398126 L10.0608899,6.90398126 Z M1.61124122,6.90398126 C1.61124122,6.4824356 1.95784543,6.13583138 2.3793911,6.13583138 L8.59016393,6.13583138 C8.54332553,6.38875878 8.51522248,6.64168618 8.51522248,6.90398126 L8.51522248,8.44028103 L22.3325527,8.44028103 L22.3325527,6.90398126 C22.3325527,6.64168618 22.3044496,6.38875878 22.2576112,6.13583138 L28.4777518,6.13583138 C28.8992974,6.13583138 29.2459016,6.4824356 29.2459016,6.90398126 L29.2459016,37.6018735 C29.2459016,38.0234192 28.8992974,38.3700234 28.4777518,38.3700234 L2.3793911,38.3700234 C1.95784543,38.3700234 1.61124122,38.0234192 1.61124122,37.6018735 L1.61124122,6.90398126 Z" id="Shape" stroke="#FFFFFF" stroke-width="0.5" fill="#5F5F5F" fill-rule="nonzero"></path>
                        <path d="M49.5362998,16.6838407 L21.6557377,16.6838407 L21.6557377,22.8290398 L49.5362998,22.8290398 C50.8103044,22.8290398 51.8407494,21.7985948 51.8407494,20.5245902 L51.8407494,18.9789227 C51.8407494,17.7142857 50.8103044,16.6838407 49.5362998,16.6838407 Z M21.6018735,18.2107728 L42.6323185,18.2107728 L42.6323185,21.2833724 L21.6018735,21.2833724 L21.6018735,18.2107728 Z M44.1686183,18.2107728 L46.4730679,18.2107728 L46.4730679,21.2833724 L44.1686183,21.2833724 L44.1686183,18.2107728 Z M50.3044496,20.5152225 C50.3044496,20.9367681 49.9578454,21.2833724 49.5362998,21.2833724 L48,21.2833724 L48,18.2107728 L49.5362998,18.2107728 C49.9578454,18.2107728 50.3044496,18.557377 50.3044496,18.9789227 L50.3044496,20.5152225 Z" id="Shape" stroke="#FFFFFF" stroke-width="0.5" fill="#5F5F5F" fill-rule="nonzero" transform="translate(36.721311, 19.756440) rotate(-90.000000) translate(-36.721311, -19.756440) "></path>
                        <polygon id="Path" fill="#F6705D" transform="translate(36.708661, 37.168005) rotate(-90.000000) translate(-36.708661, -37.168005) " points="34.383661 37.1583582 39.0336611 34.3993465 39.0336611 39.9366636"></polygon>
                        <path d="M7.75644028,24.5620609 C9.03044496,24.5620609 10.0608899,23.5316159 10.0608899,22.2576112 C10.0608899,21.2552693 9.41451991,20.412178 8.52459016,20.0936768 L8.52459016,17.6487119 L14.6604215,17.6487119 L14.6604215,20.0936768 C13.7704918,20.412178 13.1241218,21.2552693 13.1241218,22.2576112 C13.1241218,23.5316159 14.1545667,24.5620609 15.4285714,24.5620609 C16.7025761,24.5620609 17.7330211,23.5316159 17.7330211,22.2576112 C17.7330211,21.2552693 17.0866511,20.412178 16.1967213,20.0936768 L16.1967213,17.6487119 L22.3325527,17.6487119 L22.3325527,20.0936768 C21.442623,20.412178 20.7962529,21.2552693 20.7962529,22.2576112 C20.7962529,23.5316159 21.8266979,24.5620609 23.1007026,24.5620609 C24.3747073,24.5620609 25.4051522,23.5316159 25.4051522,22.2576112 C25.4051522,21.2552693 24.7587822,20.412178 23.8688525,20.0936768 L23.8688525,16.1124122 L16.1967213,16.1124122 L16.1967213,14.4355972 C17.0866511,14.117096 17.7330211,13.2740047 17.7330211,12.2716628 C17.7330211,10.9976581 16.7025761,9.96721311 15.4285714,9.96721311 C14.1545667,9.96721311 13.1241218,10.9976581 13.1241218,12.2716628 C13.1241218,13.2740047 13.7704918,14.117096 14.6604215,14.4355972 L14.6604215,16.1124122 L6.9882904,16.1124122 L6.9882904,20.0936768 C6.09836066,20.412178 5.45199063,21.2552693 5.45199063,22.2576112 C5.45199063,23.5316159 6.4824356,24.5620609 7.75644028,24.5620609 Z M15.4285714,23.0257611 C15.0070258,23.0257611 14.6604215,22.6791569 14.6604215,22.2576112 C14.6604215,21.8360656 15.0070258,21.4894614 15.4285714,21.4894614 C15.8501171,21.4894614 16.1967213,21.8360656 16.1967213,22.2576112 C16.1967213,22.6791569 15.8594848,23.0257611 15.4285714,23.0257611 Z M23.1100703,23.0257611 C22.6885246,23.0257611 22.3419204,22.6791569 22.3419204,22.2576112 C22.3419204,21.8360656 22.6885246,21.4894614 23.1100703,21.4894614 C23.5316159,21.4894614 23.8782201,21.8360656 23.8782201,22.2576112 C23.8782201,22.6791569 23.5316159,23.0257611 23.1100703,23.0257611 Z M15.4285714,11.5128806 C15.8501171,11.5128806 16.1967213,11.8594848 16.1967213,12.2810304 C16.1967213,12.7025761 15.8501171,13.0491803 15.4285714,13.0491803 C15.0070258,13.0491803 14.6604215,12.7025761 14.6604215,12.2810304 C14.6604215,11.8594848 15.0070258,11.5128806 15.4285714,11.5128806 Z M7.75644028,21.4894614 C8.17798595,21.4894614 8.52459016,21.8360656 8.52459016,22.2576112 C8.52459016,22.6791569 8.17798595,23.0257611 7.75644028,23.0257611 C7.33489461,23.0257611 6.9882904,22.6791569 6.9882904,22.2576112 C6.9882904,21.8360656 7.33489461,21.4894614 7.75644028,21.4894614 Z" id="Shape" stroke="#FFFFFF" stroke-width="0.5" fill="#F6705D" fill-rule="nonzero"></path>
                        <rect id="Rectangle-path" stroke="#FFFFFF" stroke-width="0.5" fill="#5F5F5F" fill-rule="nonzero" x="18.8537772" y="28.1916586" width="1.68556516" height="7.88328281"></rect>
                        <rect id="Rectangle-path-Copy" stroke="#FFFFFF" stroke-width="0.5" fill="#5F5F5F" fill-rule="nonzero" x="23.2424134" y="26.5937501" width="1.68556516" height="9.46840042"></rect>
                        <rect id="Rectangle-path" stroke="#FFFFFF" stroke-width="0.5" fill="#5F5F5F" fill-rule="nonzero" x="14.4651411" y="29.5068757" width="1.68556516" height="6.56806574"></rect>
                        <rect id="Rectangle-path" stroke="#FFFFFF" stroke-width="0.5" fill="#5F5F5F" fill-rule="nonzero" x="10.076505" y="30.8140732" width="1.68556516" height="5.25284867"></rect>
                        <rect id="Rectangle-path" stroke="#FFFFFF" stroke-width="0.5" fill="#5F5F5F" fill-rule="nonzero" x="6.26342773" y="32.1292902" width="1.68556516" height="3.94565121"></rect>
                    </g>
                </g>
            </g>
        </g>
    </g>
</svg>