<svg version="1" xmlns="http://www.w3.org/2000/svg" width="277.333" height="277.333" viewBox="0 0 208.000000 208.000000"><path d="M133 30c-1.2.8-1.5 4.2-1.6 20.2v19.3l-7.2.3-7.1.3-.3-12.2c-.3-11.1-.5-12.3-2.4-13.6-1.9-1.2-2.4-1.2-3.8.2-1.3 1.3-1.6 3.9-1.6 13.6V70h-7.1c-7.8 0-11.8 1.7-14 5.7-.9 1.6-1.3 6.7-1.2 15.6v13.3l-7.6.3c-4.2.2-8.7.4-10.1.6-1.4.1-3.6.3-4.8.4-1.3 0-3.9 1.6-5.8 3.5-2.6 2.6-3.4 4.2-3.4 7.1v3.7l-6.7-.6c-3.8-.4-9.5-1.3-12.8-1.9-5.4-1.2-7.3-1-19.7 1.4-7.5 1.5-14.1 3-14.7 3.3-1.2.8-.6 15.4.9 22.2 1.3 5.7 4.6 12.7 7 14.9 1.8 1.7 2.6 1.7 12.2.1 17.6-2.7 32.5-3.8 37.8-2.7 2.8.6 3.5 1.1 3.5 3.1 0 2.2.5 2.5 4.4 2.8 2.3.2 13.6-1.3 24.9-3.3 22.1-3.9 35.7-4.8 40.8-2.7 2.1.9 4.1 3 5.7 6 3.1 5.8 6.1 8.6 10.9 10.7 7.6 3.1 16.4 1.1 30.9-7.1 8.9-5.1 12.9-6.5 12.9-4.6 0 1.3-6 10.5-8.8 13.4-3.1 3.4-2.3 3.7 1.1.5 7.2-6.7 16.1-20.9 19.9-31.7 2.3-6.7 2.6-19.1.5-24.1-1.8-4.3-6.2-9.6-8.7-10.4-1-.3-7.5.8-14.5 2.5-6.9 1.6-13 3-13.5 3-.4 0-1.1-1.3-1.5-2.9-.9-4-4.6-7.2-9.4-7.8l-4.1-.6V91.1c0-10.8-.3-13.1-2-15.9-2.1-3.5-5.4-5.2-9.8-5.2h-2.8l.1-18.6c0-13.8-.3-19.2-1.3-20.5-1.5-2.1-2.9-2.4-5.2-.9zm3.5 51.8c.1 4.1.1 4.2-3.2 4.2-3.3 0-3.3 0-3.3-4.9v-4.8l3.2.6c2.9.6 3.2 1 3.3 4.9zm-12-.1c.1 4.5-.5 5.1-4.5 4.8-2.1-.1-2.4-.7-2.5-4.1-.2-5.1.1-5.6 3.8-5.2 2.9.3 3.1.6 3.2 4.5zm24.1-.2c0 4.4 0 4.5-3.3 4.5-3.2 0-3.3-.1-3.3-4.5s.1-4.5 3.3-4.5c3.3 0 3.3.1 3.3 4.5z"/></svg>