<svg version="1" xmlns="http://www.w3.org/2000/svg" width="93.333" height="93.333" viewBox="0 0 70.000000 70.000000"><path d="M6.4 1.6C.3 4.6 0 6 0 35c0 37.3-2.3 35 35 35s35 2.3 35-35C70-2.1 72.1 0 34.8 0 14.3 0 8.9.3 6.4 1.6zm22.8 19.6l.3 9.1 6.2-7.9c8-10.5 8.2-10.6 14.4-10.2l5.3.3-4.5 5.5c-2.4 3-5.9 7.4-7.7 9.7l-3.3 4.2 4.2 6.8c2.3 3.7 5.7 9 7.5 11.8 1.9 2.7 3.4 5.3 3.4 5.7 0 .5-2.5.8-5.5.8H44l-4.8-7.5c-2.6-4.1-5.2-8.2-5.8-9.2-1-1.5-1.3-1.6-2.8-.4-1.2 1-1.6 3.1-1.6 9.2V57H18V12h10.9l.3 9.2z"/></svg>